<svg width="289" height="257" viewBox="0 0 289 257" fill="none" xmlns="http://www.w3.org/2000/svg">
<rect x="64.5" y="0.5" width="32" height="32" fill="#FFEA95"/>
<rect x="64.5" y="0.5" width="32" height="32" stroke="white"/>
<rect x="128.5" y="0.5" width="32" height="32" fill="#FFEA95"/>
<rect x="128.5" y="0.5" width="32" height="32" stroke="white"/>
<rect x="192.5" y="0.5" width="32" height="32" fill="#FFEA95"/>
<rect x="192.5" y="0.5" width="32" height="32" stroke="white"/>
<rect x="64.5" y="32.5" width="32" height="32" fill="#FF5536"/>
<rect x="64.5" y="32.5" width="32" height="32" stroke="white"/>
<rect x="128.5" y="32.5" width="32" height="32" fill="#FF5536"/>
<rect x="128.5" y="32.5" width="32" height="32" stroke="white"/>
<rect x="192.5" y="32.5" width="32" height="32" fill="#FF5536"/>
<rect x="192.5" y="32.5" width="32" height="32" stroke="white"/>
<rect x="0.5" y="64.5" width="32" height="32" fill="#FADEC4"/>
<rect x="0.5" y="64.5" width="32" height="32" stroke="white"/>
<rect x="32.5" y="64.5" width="32" height="32" fill="#FCDEC1"/>
<rect x="32.5" y="64.5" width="32" height="32" stroke="white" stroke-width="0.5"/>
<rect x="64.5" y="64.5" width="32" height="32" fill="#FEEDDB"/>
<rect x="64.5" y="64.5" width="32" height="32" stroke="white"/>
<rect x="96.5" y="64.5" width="32" height="32" fill="#FCDEC1"/>
<rect x="96.5" y="64.5" width="32" height="32" stroke="white" stroke-width="0.5"/>
<rect x="128.5" y="64.5" width="32" height="32" fill="#FEEDDB"/>
<rect x="128.5" y="64.5" width="32" height="32" stroke="white"/>
<rect x="160.5" y="64.5" width="32" height="32" fill="#FCDEC1"/>
<rect x="160.5" y="64.5" width="32" height="32" stroke="white" stroke-width="0.5"/>
<rect x="192.5" y="64.5" width="32" height="32" fill="#FEEDDB"/>
<rect x="192.5" y="64.5" width="32" height="32" stroke="white"/>
<rect x="224.5" y="64.5" width="32" height="32" fill="#FCDEC1"/>
<rect x="224.5" y="64.5" width="32" height="32" stroke="white" stroke-width="0.5"/>
<rect x="256.5" y="64.5" width="32" height="32" fill="#FADEC4"/>
<rect x="256.5" y="64.5" width="32" height="32" stroke="white"/>
<rect x="0.5" y="96.5" width="32" height="32" fill="#FEEDDB"/>
<rect x="0.5" y="96.5" width="32" height="32" stroke="white"/>
<rect x="32.5" y="96.5" width="32" height="32" fill="#F14F6B"/>
<rect x="32.5" y="96.5" width="32" height="32" stroke="white" stroke-width="0.5"/>
<rect x="64.5" y="96.5" width="32" height="32" fill="#FEEDDB"/>
<rect x="64.5" y="96.5" width="32" height="32" stroke="white"/>
<rect x="96.5" y="96.5" width="32" height="32" fill="#F14F6B"/>
<rect x="96.5" y="96.5" width="32" height="32" stroke="white" stroke-width="0.5"/>
<rect x="128.5" y="96.5" width="32" height="32" fill="#FEEDDB"/>
<rect x="128.5" y="96.5" width="32" height="32" stroke="white"/>
<rect x="160.5" y="96.5" width="32" height="32" fill="#F14F6B"/>
<rect x="160.5" y="96.5" width="32" height="32" stroke="white" stroke-width="0.5"/>
<rect x="192.5" y="96.5" width="32" height="32" fill="#FEEDDB"/>
<rect x="192.5" y="96.5" width="32" height="32" stroke="white"/>
<rect x="224.5" y="96.5" width="32" height="32" fill="#F14F6B"/>
<rect x="224.5" y="96.5" width="32" height="32" stroke="white" stroke-width="0.5"/>
<rect x="256.5" y="96.5" width="32" height="32" fill="#FEEDDB"/>
<rect x="256.5" y="96.5" width="32" height="32" stroke="white"/>
<rect x="0.5" y="128.5" width="32" height="32" fill="#F14F6B"/>
<rect x="0.5" y="128.5" width="32" height="32" stroke="white" stroke-width="0.5"/>
<rect x="32.5" y="128.5" width="32" height="32" fill="#F8657E"/>
<rect x="32.5" y="128.5" width="32" height="32" stroke="white" stroke-width="0.5"/>
<rect x="64.5" y="128.5" width="32" height="32" fill="#F14F6B"/>
<rect x="64.5" y="128.5" width="32" height="32" stroke="white" stroke-width="0.5"/>
<rect x="96.5" y="128.5" width="32" height="32" fill="#F8657E"/>
<rect x="96.5" y="128.5" width="32" height="32" stroke="white" stroke-width="0.5"/>
<rect x="128.5" y="128.5" width="32" height="32" fill="#F14F6B"/>
<rect x="128.5" y="128.5" width="32" height="32" stroke="white" stroke-width="0.5"/>
<rect x="160.5" y="128.5" width="32" height="32" fill="#F8657E"/>
<rect x="160.5" y="128.5" width="32" height="32" stroke="white" stroke-width="0.5"/>
<rect x="192.5" y="128.5" width="32" height="32" fill="#F14F6B"/>
<rect x="192.5" y="128.5" width="32" height="32" stroke="white" stroke-width="0.5"/>
<rect x="224.5" y="128.5" width="32" height="32" fill="#F8657E"/>
<rect x="224.5" y="128.5" width="32" height="32" stroke="white" stroke-width="0.5"/>
<rect x="256.5" y="128.5" width="32" height="32" fill="#F14F6B"/>
<rect x="256.5" y="128.5" width="32" height="32" stroke="white" stroke-width="0.5"/>
<rect x="0.5" y="160.5" width="32" height="32" fill="#ECD1B4"/>
<rect x="0.5" y="160.5" width="32" height="32" stroke="white" stroke-width="0.5"/>
<rect x="32.5" y="160.5" width="32" height="32" fill="#ECD1B4"/>
<rect x="32.5" y="160.5" width="32" height="32" stroke="white" stroke-width="0.5"/>
<rect x="64.5" y="160.5" width="32" height="32" fill="#ECD1B4"/>
<rect x="64.5" y="160.5" width="32" height="32" stroke="white" stroke-width="0.5"/>
<rect x="96.5" y="160.5" width="32" height="32" fill="#ECD1B4"/>
<rect x="96.5" y="160.5" width="32" height="32" stroke="white" stroke-width="0.5"/>
<rect x="128.5" y="160.5" width="32" height="32" fill="#ECD1B4"/>
<rect x="128.5" y="160.5" width="32" height="32" stroke="white" stroke-width="0.5"/>
<rect x="160.5" y="160.5" width="32" height="32" fill="#ECD1B4"/>
<rect x="160.5" y="160.5" width="32" height="32" stroke="white" stroke-width="0.5"/>
<rect x="192.5" y="160.5" width="32" height="32" fill="#ECD1B4"/>
<rect x="192.5" y="160.5" width="32" height="32" stroke="white" stroke-width="0.5"/>
<rect x="224.5" y="160.5" width="32" height="32" fill="#ECD1B4"/>
<rect x="224.5" y="160.5" width="32" height="32" stroke="white" stroke-width="0.5"/>
<rect x="256.5" y="160.5" width="32" height="32" fill="#ECD1B4"/>
<rect x="256.5" y="160.5" width="32" height="32" stroke="white" stroke-width="0.5"/>
<rect x="0.5" y="192.5" width="32" height="32" fill="#8C5546"/>
<rect x="0.5" y="192.5" width="32" height="32" stroke="white" stroke-width="0.5"/>
<rect x="32.5" y="192.5" width="32" height="32" fill="#8C5546"/>
<rect x="32.5" y="192.5" width="32" height="32" stroke="white" stroke-width="0.5"/>
<rect x="64.5" y="192.5" width="32" height="32" fill="#8C5546"/>
<rect x="64.5" y="192.5" width="32" height="32" stroke="white" stroke-width="0.5"/>
<rect x="96.5" y="192.5" width="32" height="32" fill="#8C5546"/>
<rect x="96.5" y="192.5" width="32" height="32" stroke="white" stroke-width="0.5"/>
<rect x="128.5" y="192.5" width="32" height="32" fill="#8C5546"/>
<rect x="128.5" y="192.5" width="32" height="32" stroke="white" stroke-width="0.5"/>
<rect x="160.5" y="192.5" width="32" height="32" fill="#8C5546"/>
<rect x="160.5" y="192.5" width="32" height="32" stroke="white" stroke-width="0.5"/>
<rect x="192.5" y="192.5" width="32" height="32" fill="#8C5546"/>
<rect x="192.5" y="192.5" width="32" height="32" stroke="white" stroke-width="0.5"/>
<rect x="224.5" y="192.5" width="32" height="32" fill="#8C5546"/>
<rect x="224.5" y="192.5" width="32" height="32" stroke="white" stroke-width="0.5"/>
<rect x="256.5" y="192.5" width="32" height="32" fill="#8C5546"/>
<rect x="256.5" y="192.5" width="32" height="32" stroke="white" stroke-width="0.5"/>
<rect x="0.5" y="224.5" width="32" height="32" fill="#744B3B"/>
<rect x="0.5" y="224.5" width="32" height="32" stroke="white" stroke-width="0.5"/>
<rect x="32.5" y="224.5" width="32" height="32" fill="#744B3B"/>
<rect x="32.5" y="224.5" width="32" height="32" stroke="white" stroke-width="0.5"/>
<rect x="64.5" y="224.5" width="32" height="32" fill="#744B3B"/>
<rect x="64.5" y="224.5" width="32" height="32" stroke="white" stroke-width="0.5"/>
<rect x="96.5" y="224.5" width="32" height="32" fill="#744B3B"/>
<rect x="96.5" y="224.5" width="32" height="32" stroke="white" stroke-width="0.5"/>
<rect x="128.5" y="224.5" width="32" height="32" fill="#744B3B"/>
<rect x="128.5" y="224.5" width="32" height="32" stroke="white" stroke-width="0.5"/>
<rect x="160.5" y="224.5" width="32" height="32" fill="#744B3B"/>
<rect x="160.5" y="224.5" width="32" height="32" stroke="white" stroke-width="0.5"/>
<rect x="192.5" y="224.5" width="32" height="32" fill="#744B3B"/>
<rect x="192.5" y="224.5" width="32" height="32" stroke="white" stroke-width="0.5"/>
<rect x="224.5" y="224.5" width="32" height="32" fill="#744B3B"/>
<rect x="224.5" y="224.5" width="32" height="32" stroke="white" stroke-width="0.5"/>
<rect x="256.5" y="224.5" width="32" height="32" fill="#744B3B"/>
<rect x="256.5" y="224.5" width="32" height="32" stroke="white" stroke-width="0.5"/>
</svg>
