<svg width="257" height="161" viewBox="0 0 257 161" fill="none" xmlns="http://www.w3.org/2000/svg">
<rect x="0.25" y="0.25" width="32" height="32" fill="#4588FF"/>
<rect x="0.25" y="0.25" width="32" height="32" stroke="white" stroke-width="0.5"/>
<rect x="96.25" y="0.25" width="32" height="32" fill="#FFC8E0"/>
<rect x="96.25" y="0.25" width="32" height="32" stroke="white" stroke-width="0.5"/>
<rect x="128.25" y="0.25" width="32" height="32" fill="#FF74A5"/>
<rect x="128.25" y="0.25" width="32" height="32" stroke="white" stroke-width="0.5"/>
<rect x="224.25" y="0.25" width="32" height="32" fill="#4588FF"/>
<rect x="224.25" y="0.25" width="32" height="32" stroke="white" stroke-width="0.5"/>
<rect x="0.25" y="32.25" width="32" height="32" fill="#92BEFF"/>
<rect x="0.25" y="32.25" width="32" height="32" stroke="white" stroke-width="0.5"/>
<rect x="32.25" y="32.25" width="32" height="32" fill="#4588FF"/>
<rect x="32.25" y="32.25" width="32" height="32" stroke="white" stroke-width="0.5"/>
<rect x="64.25" y="32.25" width="32" height="32" fill="#FFC8E0"/>
<rect x="64.25" y="32.25" width="32" height="32" stroke="white" stroke-width="0.5"/>
<rect x="96.25" y="32.25" width="32" height="32" fill="#FFAAD2"/>
<rect x="96.25" y="32.25" width="32" height="32" stroke="white" stroke-width="0.5"/>
<rect x="128.25" y="32.25" width="32" height="32" fill="#FFAAD2"/>
<rect x="128.25" y="32.25" width="32" height="32" stroke="white" stroke-width="0.5"/>
<rect x="160.25" y="32.25" width="32" height="32" fill="#FF74A5"/>
<rect x="160.25" y="32.25" width="32" height="32" stroke="white" stroke-width="0.5"/>
<rect x="224.25" y="32.25" width="32" height="32" fill="#92BEFF"/>
<rect x="224.25" y="32.25" width="32" height="32" stroke="white" stroke-width="0.5"/>
<rect x="0.25" y="64.25" width="32" height="32" fill="#92BEFF"/>
<rect x="0.25" y="64.25" width="32" height="32" stroke="white" stroke-width="0.5"/>
<rect x="32.25" y="64.25" width="32" height="32" fill="#4588FF"/>
<rect x="32.25" y="64.25" width="32" height="32" stroke="white" stroke-width="0.5"/>
<rect x="64.25" y="64.25" width="32" height="32" fill="#FFAAD2"/>
<rect x="64.25" y="64.25" width="32" height="32" stroke="white" stroke-width="0.5"/>
<rect x="96.25" y="64.25" width="32" height="32" fill="#FFAAD2"/>
<rect x="96.25" y="64.25" width="32" height="32" stroke="white" stroke-width="0.5"/>
<rect x="128.25" y="64.25" width="32" height="32" fill="#F85243"/>
<rect x="128.25" y="64.25" width="32" height="32" stroke="white" stroke-width="0.5"/>
<rect x="160.25" y="64.25" width="32" height="32" fill="#FF74A5"/>
<rect x="160.25" y="64.25" width="32" height="32" stroke="white" stroke-width="0.5"/>
<rect x="192.25" y="64.25" width="32" height="32" fill="#4588FF"/>
<rect x="192.25" y="64.25" width="32" height="32" stroke="white" stroke-width="0.5"/>
<rect x="224.25" y="64.25" width="32" height="32" fill="#92BEFF"/>
<rect x="224.25" y="64.25" width="32" height="32" stroke="white" stroke-width="0.5"/>
<rect x="0.25" y="96.25" width="32" height="32" fill="#92BEFF"/>
<rect x="0.25" y="96.25" width="32" height="32" stroke="white" stroke-width="0.5"/>
<rect x="64.25" y="96.25" width="32" height="32" fill="#FFAAD2"/>
<rect x="64.25" y="96.25" width="32" height="32" stroke="white" stroke-width="0.5"/>
<rect x="96.25" y="96.25" width="32" height="32" fill="#F85243"/>
<rect x="96.25" y="96.25" width="32" height="32" stroke="white" stroke-width="0.5"/>
<rect x="128.25" y="96.25" width="32" height="32" fill="#F85243"/>
<rect x="128.25" y="96.25" width="32" height="32" stroke="white" stroke-width="0.5"/>
<rect x="160.25" y="96.25" width="32" height="32" fill="#FF74A5"/>
<rect x="160.25" y="96.25" width="32" height="32" stroke="white" stroke-width="0.5"/>
<rect x="192.25" y="96.25" width="32" height="32" fill="#4588FF"/>
<rect x="192.25" y="96.25" width="32" height="32" stroke="white" stroke-width="0.5"/>
<rect x="224.25" y="96.25" width="32" height="32" fill="#92BEFF"/>
<rect x="224.25" y="96.25" width="32" height="32" stroke="white" stroke-width="0.5"/>
<rect x="0.25" y="128.25" width="32" height="32" fill="#4588FF"/>
<rect x="0.25" y="128.25" width="32" height="32" stroke="white" stroke-width="0.5"/>
<rect x="96.25" y="128.25" width="32" height="32" fill="#FF74A5"/>
<rect x="96.25" y="128.25" width="32" height="32" stroke="white" stroke-width="0.5"/>
<rect x="128.25" y="128.25" width="32" height="32" fill="#FF74A5"/>
<rect x="128.25" y="128.25" width="32" height="32" stroke="white" stroke-width="0.5"/>
<rect x="224.25" y="128.25" width="32" height="32" fill="#4588FF"/>
<rect x="224.25" y="128.25" width="32" height="32" stroke="white" stroke-width="0.5"/>
</svg>
