<svg width="193" height="289" viewBox="0 0 193 289" fill="none" xmlns="http://www.w3.org/2000/svg">
<rect x="96.25" y="0.25" width="32" height="32" fill="#14780B"/>
<rect x="96.25" y="0.25" width="32" height="32" stroke="white" stroke-width="0.5"/>
<rect x="160.25" y="0.25" width="32" height="32" fill="#14780B"/>
<rect x="160.25" y="0.25" width="32" height="32" stroke="white" stroke-width="0.5"/>
<rect x="64.25" y="32.25" width="32" height="32" fill="#14780B"/>
<rect x="64.25" y="32.25" width="32" height="32" stroke="white" stroke-width="0.5"/>
<rect x="96.25" y="32.25" width="32" height="32" fill="#14780B"/>
<rect x="96.25" y="32.25" width="32" height="32" stroke="white" stroke-width="0.5"/>
<rect x="128.25" y="32.25" width="32" height="32" fill="#14780B"/>
<rect x="128.25" y="32.25" width="32" height="32" stroke="white" stroke-width="0.5"/>
<rect x="160.25" y="32.25" width="32" height="32" fill="#14780B"/>
<rect x="160.25" y="32.25" width="32" height="32" stroke="white" stroke-width="0.5"/>
<rect x="64.25" y="64.25" width="32" height="32" fill="#14780B"/>
<rect x="64.25" y="64.25" width="32" height="32" stroke="white" stroke-width="0.5"/>
<rect x="96.25" y="64.25" width="32" height="32" fill="#FF6600"/>
<rect x="96.25" y="64.25" width="32" height="32" stroke="white" stroke-width="0.5"/>
<rect x="128.25" y="64.25" width="32" height="32" fill="#14780B"/>
<rect x="128.25" y="64.25" width="32" height="32" stroke="white" stroke-width="0.5"/>
<rect x="32.25" y="96.25" width="32" height="32" fill="#FF6600"/>
<rect x="32.25" y="96.25" width="32" height="32" stroke="white" stroke-width="0.5"/>
<rect x="64.25" y="96.25" width="32" height="32" fill="#FF8900"/>
<rect x="64.25" y="96.25" width="32" height="32" stroke="white" stroke-width="0.5"/>
<rect x="96.25" y="96.25" width="32" height="32" fill="#FF8900"/>
<rect x="96.25" y="96.25" width="32" height="32" stroke="white" stroke-width="0.5"/>
<rect x="128.25" y="96.25" width="32" height="32" fill="#FF6600"/>
<rect x="128.25" y="96.25" width="32" height="32" stroke="white" stroke-width="0.5"/>
<rect x="160.25" y="96.25" width="32" height="32" fill="#FF4900"/>
<rect x="160.25" y="96.25" width="32" height="32" stroke="white" stroke-width="0.5"/>
<rect x="32.25" y="128.25" width="32" height="32" fill="#FF6600"/>
<rect x="32.25" y="128.25" width="32" height="32" stroke="white" stroke-width="0.5"/>
<rect x="64.25" y="128.25" width="32" height="32" fill="#FFAE3B"/>
<rect x="64.25" y="128.25" width="32" height="32" stroke="white" stroke-width="0.5"/>
<rect x="96.25" y="128.25" width="32" height="32" fill="#FF8900"/>
<rect x="96.25" y="128.25" width="32" height="32" stroke="white" stroke-width="0.5"/>
<rect x="128.25" y="128.25" width="32" height="32" fill="#FF6600"/>
<rect x="128.25" y="128.25" width="32" height="32" stroke="white" stroke-width="0.5"/>
<rect x="160.25" y="128.25" width="32" height="32" fill="#FF4900"/>
<rect x="160.25" y="128.25" width="32" height="32" stroke="white" stroke-width="0.5"/>
<rect x="0.25" y="160.25" width="32" height="32" fill="#FF6600"/>
<rect x="0.25" y="160.25" width="32" height="32" stroke="white" stroke-width="0.5"/>
<rect x="32.25" y="160.25" width="32" height="32" fill="#FFAE3B"/>
<rect x="32.25" y="160.25" width="32" height="32" stroke="white" stroke-width="0.5"/>
<rect x="64.25" y="160.25" width="32" height="32" fill="#FF8900"/>
<rect x="64.25" y="160.25" width="32" height="32" stroke="white" stroke-width="0.5"/>
<rect x="96.25" y="160.25" width="32" height="32" fill="#FF6600"/>
<rect x="96.25" y="160.25" width="32" height="32" stroke="white" stroke-width="0.5"/>
<rect x="128.25" y="160.25" width="32" height="32" fill="#FF4900"/>
<rect x="128.25" y="160.25" width="32" height="32" stroke="white" stroke-width="0.5"/>
<rect x="0.25" y="192.25" width="32" height="32" fill="#FFAE3B"/>
<rect x="0.25" y="192.25" width="32" height="32" stroke="white" stroke-width="0.5"/>
<rect x="32.25" y="192.25" width="32" height="32" fill="#FF8900"/>
<rect x="32.25" y="192.25" width="32" height="32" stroke="white" stroke-width="0.5"/>
<rect x="64.25" y="192.25" width="32" height="32" fill="#FF6600"/>
<rect x="64.25" y="192.25" width="32" height="32" stroke="white" stroke-width="0.5"/>
<rect x="96.25" y="192.25" width="32" height="32" fill="#FF4900"/>
<rect x="96.25" y="192.25" width="32" height="32" stroke="white" stroke-width="0.5"/>
<rect x="0.25" y="224.25" width="32" height="32" fill="#FFAE3B"/>
<rect x="0.25" y="224.25" width="32" height="32" stroke="white" stroke-width="0.5"/>
<rect x="32.25" y="224.25" width="32" height="32" fill="#FF8900"/>
<rect x="32.25" y="224.25" width="32" height="32" stroke="white" stroke-width="0.5"/>
<rect x="64.25" y="224.25" width="32" height="32" fill="#FF4900"/>
<rect x="64.25" y="224.25" width="32" height="32" stroke="white" stroke-width="0.5"/>
<rect x="0.25" y="256.25" width="32" height="32" fill="#FF8900"/>
<rect x="0.25" y="256.25" width="32" height="32" stroke="white" stroke-width="0.5"/>
<rect x="32.25" y="256.25" width="32" height="32" fill="#FF4900"/>
<rect x="32.25" y="256.25" width="32" height="32" stroke="white" stroke-width="0.5"/>
</svg>
