<svg width="257" height="257" viewBox="0 0 257 257" fill="none" xmlns="http://www.w3.org/2000/svg">
<rect x="64.25" y="0.25" width="32" height="32" fill="#C48852"/>
<rect x="64.25" y="0.25" width="32" height="32" stroke="white" stroke-width="0.5"/>
<rect x="96.25" y="0.25" width="32" height="32" fill="#C48852"/>
<rect x="96.25" y="0.25" width="32" height="32" stroke="white" stroke-width="0.5"/>
<rect x="128.25" y="0.25" width="32" height="32" fill="#C48852"/>
<rect x="128.25" y="0.25" width="32" height="32" stroke="white" stroke-width="0.5"/>
<rect x="160.25" y="0.25" width="32" height="32" fill="#C48852"/>
<rect x="160.25" y="0.25" width="32" height="32" stroke="white" stroke-width="0.5"/>
<rect x="32.25" y="32.25" width="32" height="32" fill="#C48852"/>
<rect x="32.25" y="32.25" width="32" height="32" stroke="white" stroke-width="0.5"/>
<rect x="64.25" y="32.25" width="32" height="32" fill="#DB9759"/>
<rect x="64.25" y="32.25" width="32" height="32" stroke="white" stroke-width="0.5"/>
<rect x="96.25" y="32.25" width="32" height="32" fill="#DB9759"/>
<rect x="96.25" y="32.25" width="32" height="32" stroke="white" stroke-width="0.5"/>
<rect x="128.25" y="32.25" width="32" height="32" fill="#744B3B"/>
<rect x="128.25" y="32.25" width="32" height="32" stroke="white" stroke-width="0.5"/>
<rect x="160.25" y="32.25" width="32" height="32" fill="#DB9759"/>
<rect x="160.25" y="32.25" width="32" height="32" stroke="white" stroke-width="0.5"/>
<rect x="192.25" y="32.25" width="32" height="32" fill="#C48852"/>
<rect x="192.25" y="32.25" width="32" height="32" stroke="white" stroke-width="0.5"/>
<rect x="0.25" y="64.25" width="32" height="32" fill="#C48852"/>
<rect x="0.25" y="64.25" width="32" height="32" stroke="white" stroke-width="0.5"/>
<rect x="32.25" y="64.25" width="32" height="32" fill="#DB9759"/>
<rect x="32.25" y="64.25" width="32" height="32" stroke="white" stroke-width="0.5"/>
<rect x="64.25" y="64.25" width="32" height="32" fill="#744B3B"/>
<rect x="64.25" y="64.25" width="32" height="32" stroke="white" stroke-width="0.5"/>
<rect x="96.25" y="64.25" width="32" height="32" fill="#DB9759"/>
<rect x="96.25" y="64.25" width="32" height="32" stroke="white" stroke-width="0.5"/>
<rect x="128.25" y="64.25" width="32" height="32" fill="#DB9759"/>
<rect x="128.25" y="64.25" width="32" height="32" stroke="white" stroke-width="0.5"/>
<rect x="160.25" y="64.25" width="32" height="32" fill="#DB9759"/>
<rect x="160.25" y="64.25" width="32" height="32" stroke="white" stroke-width="0.5"/>
<rect x="192.25" y="64.25" width="32" height="32" fill="#DB9759"/>
<rect x="192.25" y="64.25" width="32" height="32" stroke="white" stroke-width="0.5"/>
<rect x="224.25" y="64.25" width="32" height="32" fill="#C48852"/>
<rect x="224.25" y="64.25" width="32" height="32" stroke="white" stroke-width="0.5"/>
<rect x="0.25" y="96.25" width="32" height="32" fill="#C48852"/>
<rect x="0.25" y="96.25" width="32" height="32" stroke="white" stroke-width="0.5"/>
<rect x="32.25" y="96.25" width="32" height="32" fill="#DB9759"/>
<rect x="32.25" y="96.25" width="32" height="32" stroke="white" stroke-width="0.5"/>
<rect x="64.25" y="96.25" width="32" height="32" fill="#DB9759"/>
<rect x="64.25" y="96.25" width="32" height="32" stroke="white" stroke-width="0.5"/>
<rect x="96.25" y="96.25" width="32" height="32" fill="#DB9759"/>
<rect x="96.25" y="96.25" width="32" height="32" stroke="white" stroke-width="0.5"/>
<rect x="128.25" y="96.25" width="32" height="32" fill="#DB9759"/>
<rect x="128.25" y="96.25" width="32" height="32" stroke="white" stroke-width="0.5"/>
<rect x="160.25" y="96.25" width="32" height="32" fill="#744B3B"/>
<rect x="160.25" y="96.25" width="32" height="32" stroke="white" stroke-width="0.5"/>
<rect x="192.25" y="96.25" width="32" height="32" fill="#DB9759"/>
<rect x="192.25" y="96.25" width="32" height="32" stroke="white" stroke-width="0.5"/>
<rect x="224.25" y="96.25" width="32" height="32" fill="#C48852"/>
<rect x="224.25" y="96.25" width="32" height="32" stroke="white" stroke-width="0.5"/>
<rect x="0.25" y="128.25" width="32" height="32" fill="#C48852"/>
<rect x="0.25" y="128.25" width="32" height="32" stroke="white" stroke-width="0.5"/>
<rect x="32.25" y="128.25" width="32" height="32" fill="#744B3B"/>
<rect x="32.25" y="128.25" width="32" height="32" stroke="white" stroke-width="0.5"/>
<rect x="64.25" y="128.25" width="32" height="32" fill="#DB9759"/>
<rect x="64.25" y="128.25" width="32" height="32" stroke="white" stroke-width="0.5"/>
<rect x="96.25" y="128.25" width="32" height="32" fill="#DB9759"/>
<rect x="96.25" y="128.25" width="32" height="32" stroke="white" stroke-width="0.5"/>
<rect x="128.25" y="128.25" width="32" height="32" fill="#744B3B"/>
<rect x="128.25" y="128.25" width="32" height="32" stroke="white" stroke-width="0.5"/>
<rect x="160.25" y="128.25" width="32" height="32" fill="#DB9759"/>
<rect x="160.25" y="128.25" width="32" height="32" stroke="white" stroke-width="0.5"/>
<rect x="192.25" y="128.25" width="32" height="32" fill="#C88446"/>
<rect x="192.25" y="128.25" width="32" height="32" stroke="white" stroke-width="0.5"/>
<rect x="224.25" y="128.25" width="32" height="32" fill="#C48852"/>
<rect x="224.25" y="128.25" width="32" height="32" stroke="white" stroke-width="0.5"/>
<rect x="0.25" y="160.25" width="32" height="32" fill="#C48852"/>
<rect x="0.25" y="160.25" width="32" height="32" stroke="white" stroke-width="0.5"/>
<rect x="32.25" y="160.25" width="32" height="32" fill="#DB9759"/>
<rect x="32.25" y="160.25" width="32" height="32" stroke="white" stroke-width="0.5"/>
<rect x="64.25" y="160.25" width="32" height="32" fill="#DB9759"/>
<rect x="64.25" y="160.25" width="32" height="32" stroke="white" stroke-width="0.5"/>
<rect x="96.25" y="160.25" width="32" height="32" fill="#DB9759"/>
<rect x="96.25" y="160.25" width="32" height="32" stroke="white" stroke-width="0.5"/>
<rect x="128.25" y="160.25" width="32" height="32" fill="#DB9759"/>
<rect x="128.25" y="160.25" width="32" height="32" stroke="white" stroke-width="0.5"/>
<rect x="160.25" y="160.25" width="32" height="32" fill="#C88446"/>
<rect x="160.25" y="160.25" width="32" height="32" stroke="white" stroke-width="0.5"/>
<rect x="192.25" y="160.25" width="32" height="32" fill="#C88446"/>
<rect x="192.25" y="160.25" width="32" height="32" stroke="white" stroke-width="0.5"/>
<rect x="224.25" y="160.25" width="32" height="32" fill="#C48852"/>
<rect x="224.25" y="160.25" width="32" height="32" stroke="white" stroke-width="0.5"/>
<rect x="32.25" y="192.25" width="32" height="32" fill="#C48852"/>
<rect x="32.25" y="192.25" width="32" height="32" stroke="white" stroke-width="0.5"/>
<rect x="64.25" y="192.25" width="32" height="32" fill="#744B3B"/>
<rect x="64.25" y="192.25" width="32" height="32" stroke="white" stroke-width="0.5"/>
<rect x="96.25" y="192.25" width="32" height="32" fill="#C88446"/>
<rect x="96.25" y="192.25" width="32" height="32" stroke="white" stroke-width="0.5"/>
<rect x="128.25" y="192.25" width="32" height="32" fill="#C88446"/>
<rect x="128.25" y="192.25" width="32" height="32" stroke="white" stroke-width="0.5"/>
<rect x="160.25" y="192.25" width="32" height="32" fill="#744B3B"/>
<rect x="160.25" y="192.25" width="32" height="32" stroke="white" stroke-width="0.5"/>
<rect x="192.25" y="192.25" width="32" height="32" fill="#C48852"/>
<rect x="192.25" y="192.25" width="32" height="32" stroke="white" stroke-width="0.5"/>
<rect x="64.25" y="224.25" width="32" height="32" fill="#C48852"/>
<rect x="64.25" y="224.25" width="32" height="32" stroke="white" stroke-width="0.5"/>
<rect x="96.25" y="224.25" width="32" height="32" fill="#C48852"/>
<rect x="96.25" y="224.25" width="32" height="32" stroke="white" stroke-width="0.5"/>
<rect x="128.25" y="224.25" width="32" height="32" fill="#C48852"/>
<rect x="128.25" y="224.25" width="32" height="32" stroke="white" stroke-width="0.5"/>
<rect x="160.25" y="224.25" width="32" height="32" fill="#C48852"/>
<rect x="160.25" y="224.25" width="32" height="32" stroke="white" stroke-width="0.5"/>
</svg>
