<svg width="289" height="257" viewBox="0 0 289 257" fill="none" xmlns="http://www.w3.org/2000/svg">
<rect x="64.25" y="0.25" width="32" height="32" fill="#DA60EB"/>
<rect x="64.25" y="0.25" width="32" height="32" stroke="white" stroke-width="0.5"/>
<rect x="96.25" y="0.25" width="32" height="32" fill="#DA60EB"/>
<rect x="96.25" y="0.25" width="32" height="32" stroke="white" stroke-width="0.5"/>
<rect x="128.25" y="0.25" width="32" height="32" fill="#DA60EB"/>
<rect x="128.25" y="0.25" width="32" height="32" stroke="white" stroke-width="0.5"/>
<rect x="160.25" y="0.25" width="32" height="32" fill="#DA60EB"/>
<rect x="160.25" y="0.25" width="32" height="32" stroke="white" stroke-width="0.5"/>
<rect x="192.25" y="0.25" width="32" height="32" fill="#DA60EB"/>
<rect x="192.25" y="0.25" width="32" height="32" stroke="white" stroke-width="0.5"/>
<rect x="32.25" y="32.25" width="32" height="32" fill="#E981F7"/>
<rect x="32.25" y="32.25" width="32" height="32" stroke="white" stroke-width="0.5"/>
<rect x="64.25" y="32.25" width="32" height="32" fill="#FDD2FC"/>
<rect x="64.25" y="32.25" width="32" height="32" stroke="white" stroke-width="0.5"/>
<rect x="96.25" y="32.25" width="32" height="32" fill="#F3A5FA"/>
<rect x="96.25" y="32.25" width="32" height="32" stroke="white" stroke-width="0.5"/>
<rect x="128.25" y="32.25" width="32" height="32" fill="#F3A5FA"/>
<rect x="128.25" y="32.25" width="32" height="32" stroke="white" stroke-width="0.5"/>
<rect x="160.25" y="32.25" width="32" height="32" fill="#F3A5FA"/>
<rect x="160.25" y="32.25" width="32" height="32" stroke="white" stroke-width="0.5"/>
<rect x="192.25" y="32.25" width="32" height="32" fill="#E981F7"/>
<rect x="192.25" y="32.25" width="32" height="32" stroke="white" stroke-width="0.5"/>
<rect x="224.25" y="32.25" width="32" height="32" fill="#DA60EB"/>
<rect x="224.25" y="32.25" width="32" height="32" stroke="white" stroke-width="0.5"/>
<rect x="0.25" y="64.25" width="32" height="32" fill="#E981F7"/>
<rect x="0.25" y="64.25" width="32" height="32" stroke="white" stroke-width="0.5"/>
<rect x="32.25" y="64.25" width="32" height="32" fill="#FDD2FC"/>
<rect x="32.25" y="64.25" width="32" height="32" stroke="white" stroke-width="0.5"/>
<rect x="64.25" y="64.25" width="32" height="32" fill="#FDF4FF"/>
<rect x="64.25" y="64.25" width="32" height="32" stroke="white" stroke-width="0.5"/>
<rect x="96.25" y="64.25" width="32" height="32" fill="#FDD2FC"/>
<rect x="96.25" y="64.25" width="32" height="32" stroke="white" stroke-width="0.5"/>
<rect x="128.25" y="64.25" width="32" height="32" fill="#F3A5FA"/>
<rect x="128.25" y="64.25" width="32" height="32" stroke="white" stroke-width="0.5"/>
<rect x="160.25" y="64.25" width="32" height="32" fill="#E981F7"/>
<rect x="160.25" y="64.25" width="32" height="32" stroke="white" stroke-width="0.5"/>
<rect x="192.25" y="64.25" width="32" height="32" fill="#DA60EB"/>
<rect x="192.25" y="64.25" width="32" height="32" stroke="white" stroke-width="0.5"/>
<rect x="224.25" y="64.25" width="32" height="32" fill="#DA60EB"/>
<rect x="224.25" y="64.25" width="32" height="32" stroke="white" stroke-width="0.5"/>
<rect x="256.25" y="64.25" width="32" height="32" fill="#C047D1"/>
<rect x="256.25" y="64.25" width="32" height="32" stroke="white" stroke-width="0.5"/>
<rect x="0.25" y="96.25" width="32" height="32" fill="#DA60EB"/>
<rect x="0.25" y="96.25" width="32" height="32" stroke="white" stroke-width="0.5"/>
<rect x="32.25" y="96.25" width="32" height="32" fill="#F3A5FA"/>
<rect x="32.25" y="96.25" width="32" height="32" stroke="white" stroke-width="0.5"/>
<rect x="64.25" y="96.25" width="32" height="32" fill="#FDD2FC"/>
<rect x="64.25" y="96.25" width="32" height="32" stroke="white" stroke-width="0.5"/>
<rect x="96.25" y="96.25" width="32" height="32" fill="#F3A5FA"/>
<rect x="96.25" y="96.25" width="32" height="32" stroke="white" stroke-width="0.5"/>
<rect x="128.25" y="96.25" width="32" height="32" fill="#E981F7"/>
<rect x="128.25" y="96.25" width="32" height="32" stroke="white" stroke-width="0.5"/>
<rect x="160.25" y="96.25" width="32" height="32" fill="#DA60EB"/>
<rect x="160.25" y="96.25" width="32" height="32" stroke="white" stroke-width="0.5"/>
<rect x="192.25" y="96.25" width="32" height="32" fill="#C047D1"/>
<rect x="192.25" y="96.25" width="32" height="32" stroke="white" stroke-width="0.5"/>
<rect x="224.25" y="96.25" width="32" height="32" fill="#C047D1"/>
<rect x="224.25" y="96.25" width="32" height="32" stroke="white" stroke-width="0.5"/>
<rect x="256.25" y="96.25" width="32" height="32" fill="#C047D1"/>
<rect x="256.25" y="96.25" width="32" height="32" stroke="white" stroke-width="0.5"/>
<rect x="32.25" y="128.25" width="32" height="32" fill="#E981F7"/>
<rect x="32.25" y="128.25" width="32" height="32" stroke="white" stroke-width="0.5"/>
<rect x="64.25" y="128.25" width="32" height="32" fill="#F3A5FA"/>
<rect x="64.25" y="128.25" width="32" height="32" stroke="white" stroke-width="0.5"/>
<rect x="96.25" y="128.25" width="32" height="32" fill="#E981F7"/>
<rect x="96.25" y="128.25" width="32" height="32" stroke="white" stroke-width="0.5"/>
<rect x="128.25" y="128.25" width="32" height="32" fill="#E981F7"/>
<rect x="128.25" y="128.25" width="32" height="32" stroke="white" stroke-width="0.5"/>
<rect x="160.25" y="128.25" width="32" height="32" fill="#C047D1"/>
<rect x="160.25" y="128.25" width="32" height="32" stroke="white" stroke-width="0.5"/>
<rect x="192.25" y="128.25" width="32" height="32" fill="#C047D1"/>
<rect x="192.25" y="128.25" width="32" height="32" stroke="white" stroke-width="0.5"/>
<rect x="224.25" y="128.25" width="32" height="32" fill="#C047D1"/>
<rect x="224.25" y="128.25" width="32" height="32" stroke="white" stroke-width="0.5"/>
<rect x="64.25" y="160.25" width="32" height="32" fill="#DA60EB"/>
<rect x="64.25" y="160.25" width="32" height="32" stroke="white" stroke-width="0.5"/>
<rect x="96.25" y="160.25" width="32" height="32" fill="#E981F7"/>
<rect x="96.25" y="160.25" width="32" height="32" stroke="white" stroke-width="0.5"/>
<rect x="128.25" y="160.25" width="32" height="32" fill="#E981F7"/>
<rect x="128.25" y="160.25" width="32" height="32" stroke="white" stroke-width="0.5"/>
<rect x="160.25" y="160.25" width="32" height="32" fill="#C047D1"/>
<rect x="160.25" y="160.25" width="32" height="32" stroke="white" stroke-width="0.5"/>
<rect x="192.25" y="160.25" width="32" height="32" fill="#C047D1"/>
<rect x="192.25" y="160.25" width="32" height="32" stroke="white" stroke-width="0.5"/>
<rect x="96.25" y="192.25" width="32" height="32" fill="#E981F7"/>
<rect x="96.25" y="192.25" width="32" height="32" stroke="white" stroke-width="0.5"/>
<rect x="128.25" y="192.25" width="32" height="32" fill="#C047D1"/>
<rect x="128.25" y="192.25" width="32" height="32" stroke="white" stroke-width="0.5"/>
<rect x="160.25" y="192.25" width="32" height="32" fill="#C047D1"/>
<rect x="160.25" y="192.25" width="32" height="32" stroke="white" stroke-width="0.5"/>
<rect x="128.25" y="224.25" width="32" height="32" fill="#C047D1"/>
<rect x="128.25" y="224.25" width="32" height="32" stroke="white" stroke-width="0.5"/>
</svg>
