<svg width="353" height="449" viewBox="0 0 353 449" fill="none" xmlns="http://www.w3.org/2000/svg">
<rect x="160.5" y="0.5" width="32" height="32" fill="#386335"/>
<rect x="160.5" y="0.5" width="32" height="32" stroke="#376234"/>
<rect x="224.5" y="0.5" width="32" height="32" fill="#386335"/>
<rect x="224.5" y="0.5" width="32" height="32" stroke="#376234"/>
<rect x="192.5" y="32.5" width="32" height="32" fill="#386335"/>
<rect x="192.5" y="32.5" width="32" height="32" stroke="#376234"/>
<rect x="128.5" y="64.5" width="32" height="32" fill="#F49020"/>
<rect x="128.5" y="64.5" width="32" height="32" stroke="#F49020"/>
<rect x="160.5" y="64.5" width="32" height="32" fill="#F49020"/>
<rect x="160.5" y="64.5" width="32" height="32" stroke="#F49020"/>
<rect x="192.5" y="64.5" width="32" height="32" fill="#F49020"/>
<rect x="192.5" y="64.5" width="32" height="32" stroke="#F49020"/>
<rect x="224.5" y="64.5" width="32" height="32" fill="#F49020"/>
<rect x="224.5" y="64.5" width="32" height="32" stroke="#F49020"/>
<rect x="96.5" y="96.5" width="32" height="32" fill="#F49020"/>
<rect x="96.5" y="96.5" width="32" height="32" stroke="#F49020"/>
<rect x="128.5" y="96.5" width="32" height="32" fill="#F49020"/>
<rect x="128.5" y="96.5" width="32" height="32" stroke="#F49020"/>
<rect x="160.5" y="96.5" width="32" height="32" fill="#F49020"/>
<rect x="160.5" y="96.5" width="32" height="32" stroke="#F49020"/>
<rect x="192.5" y="96.5" width="32" height="32" fill="#F49020"/>
<rect x="192.5" y="96.5" width="32" height="32" stroke="#F49020"/>
<rect x="224.5" y="96.5" width="32" height="32" fill="#F49020"/>
<rect x="224.5" y="96.5" width="32" height="32" stroke="#F49020"/>
<rect x="256.5" y="96.5" width="32" height="32" fill="#F49020"/>
<rect x="256.5" y="96.5" width="32" height="32" stroke="#F49020"/>
<rect x="96.5" y="128.5" width="32" height="32" fill="#F49020"/>
<rect x="96.5" y="128.5" width="32" height="32" stroke="#F49020"/>
<rect x="128.5" y="128.5" width="32" height="32" fill="#F49020"/>
<rect x="128.5" y="128.5" width="32" height="32" stroke="#F49020"/>
<rect x="160.5" y="128.5" width="32" height="32" fill="#F49020"/>
<rect x="160.5" y="128.5" width="32" height="32" stroke="#F49020"/>
<rect x="192.5" y="128.5" width="32" height="32" fill="#F49020"/>
<rect x="192.5" y="128.5" width="32" height="32" stroke="#F49020"/>
<rect x="224.5" y="128.5" width="32" height="32" fill="#F49020"/>
<rect x="224.5" y="128.5" width="32" height="32" stroke="#F49020"/>
<rect x="256.5" y="128.5" width="32" height="32" fill="#F49020"/>
<rect x="256.5" y="128.5" width="32" height="32" stroke="#F49020"/>
<rect x="128.5" y="160.5" width="32" height="32" fill="#F49020"/>
<rect x="128.5" y="160.5" width="32" height="32" stroke="#F49020"/>
<rect x="160.5" y="160.5" width="32" height="32" fill="#F49020"/>
<rect x="160.5" y="160.5" width="32" height="32" stroke="#F49020"/>
<rect x="192.5" y="160.5" width="32" height="32" fill="#F49020"/>
<rect x="192.5" y="160.5" width="32" height="32" stroke="#F49020"/>
<rect x="224.5" y="160.5" width="32" height="32" fill="#F49020"/>
<rect x="224.5" y="160.5" width="32" height="32" stroke="#F49020"/>
<rect x="64.5" y="192.5" width="32" height="32" fill="#603815"/>
<rect x="64.5" y="192.5" width="32" height="32" stroke="#603815"/>
<rect x="96.5" y="192.5" width="32" height="32" fill="#603815"/>
<rect x="96.5" y="192.5" width="32" height="32" stroke="#603815"/>
<rect x="128.5" y="192.5" width="32" height="32" fill="#603815"/>
<rect x="128.5" y="192.5" width="32" height="32" stroke="#603815"/>
<rect x="160.5" y="192.5" width="32" height="32" fill="#94612C"/>
<rect x="160.5" y="192.5" width="32" height="32" stroke="#94612C"/>
<rect x="192.5" y="192.5" width="32" height="32" fill="#804A1B"/>
<rect x="192.5" y="192.5" width="32" height="32" stroke="#804A1B"/>
<rect x="224.5" y="192.5" width="32" height="32" fill="#603815"/>
<rect x="224.5" y="192.5" width="32" height="32" stroke="#603815"/>
<rect x="32.5" y="224.5" width="32" height="32" fill="#603815"/>
<rect x="32.5" y="224.5" width="32" height="32" stroke="#603815"/>
<rect x="64.5" y="224.5" width="32" height="32" fill="#94612C"/>
<rect x="64.5" y="224.5" width="32" height="32" stroke="#94612C"/>
<rect x="96.5" y="224.5" width="32" height="32" fill="#94612C"/>
<rect x="96.5" y="224.5" width="32" height="32" stroke="#94612C"/>
<rect x="128.5" y="224.5" width="32" height="32" fill="#94612C"/>
<rect x="128.5" y="224.5" width="32" height="32" stroke="#94612C"/>
<rect x="160.5" y="224.5" width="32" height="32" fill="#804A1B"/>
<rect x="160.5" y="224.5" width="32" height="32" stroke="#804A1B"/>
<rect x="192.5" y="224.5" width="32" height="32" fill="#603815"/>
<rect x="192.5" y="224.5" width="32" height="32" stroke="#603815"/>
<rect x="0.5" y="256.5" width="32" height="32" fill="#603815"/>
<rect x="0.5" y="256.5" width="32" height="32" stroke="#603815"/>
<rect x="32.5" y="256.5" width="32" height="32" fill="#804A1B"/>
<rect x="32.5" y="256.5" width="32" height="32" stroke="#804A1B"/>
<rect x="64.5" y="256.5" width="32" height="32" fill="#804A1B"/>
<rect x="64.5" y="256.5" width="32" height="32" stroke="#804A1B"/>
<rect x="96.5" y="256.5" width="32" height="32" fill="#94612C"/>
<rect x="96.5" y="256.5" width="32" height="32" stroke="#94612C"/>
<rect x="128.5" y="256.5" width="32" height="32" fill="black"/>
<rect x="128.5" y="256.5" width="32" height="32" stroke="black"/>
<rect x="160.5" y="256.5" width="32" height="32" fill="#804A1B"/>
<rect x="160.5" y="256.5" width="32" height="32" stroke="#804A1B"/>
<rect x="192.5" y="256.5" width="32" height="32" fill="#804A1B"/>
<rect x="192.5" y="256.5" width="32" height="32" stroke="#804A1B"/>
<rect x="224.5" y="256.5" width="32" height="32" fill="#603815"/>
<rect x="224.5" y="256.5" width="32" height="32" stroke="#603815"/>
<rect x="256.5" y="256.5" width="32" height="32" fill="#603815"/>
<rect x="256.5" y="256.5" width="32" height="32" stroke="#603815"/>
<rect x="288.5" y="256.5" width="32" height="32" fill="#603815"/>
<rect x="288.5" y="256.5" width="32" height="32" stroke="#603815"/>
<rect x="0.5" y="288.5" width="32" height="32" fill="#603815"/>
<rect x="0.5" y="288.5" width="32" height="32" stroke="#603815"/>
<rect x="32.5" y="288.5" width="32" height="32" fill="black"/>
<rect x="32.5" y="288.5" width="32" height="32" stroke="black"/>
<rect x="64.5" y="288.5" width="32" height="32" fill="#804A1B"/>
<rect x="64.5" y="288.5" width="32" height="32" stroke="#804A1B"/>
<rect x="96.5" y="288.5" width="32" height="32" fill="#94612C"/>
<rect x="96.5" y="288.5" width="32" height="32" stroke="#94612C"/>
<rect x="128.5" y="288.5" width="32" height="32" fill="#94612C"/>
<rect x="128.5" y="288.5" width="32" height="32" stroke="#94612C"/>
<rect x="160.5" y="288.5" width="32" height="32" fill="#94612C"/>
<rect x="160.5" y="288.5" width="32" height="32" stroke="#94612C"/>
<rect x="192.5" y="288.5" width="32" height="32" fill="#94612C"/>
<rect x="192.5" y="288.5" width="32" height="32" stroke="#94612C"/>
<rect x="224.5" y="288.5" width="32" height="32" fill="#94612C"/>
<rect x="224.5" y="288.5" width="32" height="32" stroke="#94612C"/>
<rect x="256.5" y="288.5" width="32" height="32" fill="#94612C"/>
<rect x="256.5" y="288.5" width="32" height="32" stroke="#94612C"/>
<rect x="288.5" y="288.5" width="32" height="32" fill="#94612C"/>
<rect x="288.5" y="288.5" width="32" height="32" stroke="#94612C"/>
<rect x="320.5" y="288.5" width="32" height="32" fill="#603815"/>
<rect x="320.5" y="288.5" width="32" height="32" stroke="#603815"/>
<rect x="0.5" y="320.5" width="32" height="32" fill="#603815"/>
<rect x="0.5" y="320.5" width="32" height="32" stroke="#603815"/>
<rect x="32.5" y="320.5" width="32" height="32" fill="#804A1B"/>
<rect x="32.5" y="320.5" width="32" height="32" stroke="#804A1B"/>
<rect x="64.5" y="320.5" width="32" height="32" fill="#94612C"/>
<rect x="64.5" y="320.5" width="32" height="32" stroke="#94612C"/>
<rect x="96.5" y="320.5" width="32" height="32" fill="#94612C"/>
<rect x="96.5" y="320.5" width="32" height="32" stroke="#94612C"/>
<rect x="128.5" y="320.5" width="32" height="32" fill="#94612C"/>
<rect x="128.5" y="320.5" width="32" height="32" stroke="#94612C"/>
<rect x="160.5" y="320.5" width="32" height="32" fill="#94612C"/>
<rect x="160.5" y="320.5" width="32" height="32" stroke="#94612C"/>
<rect x="192.5" y="320.5" width="32" height="32" fill="#94612C"/>
<rect x="192.5" y="320.5" width="32" height="32" stroke="#94612C"/>
<rect x="224.5" y="320.5" width="32" height="32" fill="#94612C"/>
<rect x="224.5" y="320.5" width="32" height="32" stroke="#94612C"/>
<rect x="256.5" y="320.5" width="32" height="32" fill="#804A1B"/>
<rect x="256.5" y="320.5" width="32" height="32" stroke="#804A1B"/>
<rect x="288.5" y="320.5" width="32" height="32" fill="#94612C"/>
<rect x="288.5" y="320.5" width="32" height="32" stroke="#94612C"/>
<rect x="320.5" y="320.5" width="32" height="32" fill="#603815"/>
<rect x="320.5" y="320.5" width="32" height="32" stroke="#603815"/>
<rect x="32.5" y="352.5" width="32" height="32" fill="#603815"/>
<rect x="32.5" y="352.5" width="32" height="32" stroke="#603815"/>
<rect x="64.5" y="352.5" width="32" height="32" fill="#603815"/>
<rect x="64.5" y="352.5" width="32" height="32" stroke="#603815"/>
<rect x="96.5" y="352.5" width="32" height="32" fill="#94612C"/>
<rect x="96.5" y="352.5" width="32" height="32" stroke="#94612C"/>
<rect x="128.5" y="352.5" width="32" height="32" fill="#94612C"/>
<rect x="128.5" y="352.5" width="32" height="32" stroke="#94612C"/>
<rect x="160.5" y="352.5" width="32" height="32" fill="#804A1B"/>
<rect x="160.5" y="352.5" width="32" height="32" stroke="#804A1B"/>
<rect x="192.5" y="352.5" width="32" height="32" fill="#94612C"/>
<rect x="192.5" y="352.5" width="32" height="32" stroke="#94612C"/>
<rect x="224.5" y="352.5" width="32" height="32" fill="#94612C"/>
<rect x="224.5" y="352.5" width="32" height="32" stroke="#94612C"/>
<rect x="256.5" y="352.5" width="32" height="32" fill="#804A1B"/>
<rect x="256.5" y="352.5" width="32" height="32" stroke="#804A1B"/>
<rect x="288.5" y="352.5" width="32" height="32" fill="#94612C"/>
<rect x="288.5" y="352.5" width="32" height="32" stroke="#94612C"/>
<rect x="320.5" y="352.5" width="32" height="32" fill="#603815"/>
<rect x="320.5" y="352.5" width="32" height="32" stroke="#603815"/>
<rect x="64.5" y="384.5" width="32" height="32" fill="#603815"/>
<rect x="64.5" y="384.5" width="32" height="32" stroke="#603815"/>
<rect x="96.5" y="384.5" width="32" height="32" fill="#94612C"/>
<rect x="96.5" y="384.5" width="32" height="32" stroke="#94612C"/>
<rect x="128.5" y="384.5" width="32" height="32" fill="#94612C"/>
<rect x="128.5" y="384.5" width="32" height="32" stroke="#94612C"/>
<rect x="160.5" y="384.5" width="32" height="32" fill="#804A1B"/>
<rect x="160.5" y="384.5" width="32" height="32" stroke="#804A1B"/>
<rect x="192.5" y="384.5" width="32" height="32" fill="#94612C"/>
<rect x="192.5" y="384.5" width="32" height="32" stroke="#94612C"/>
<rect x="224.5" y="384.5" width="32" height="32" fill="#804A1B"/>
<rect x="224.5" y="384.5" width="32" height="32" stroke="#804A1B"/>
<rect x="256.5" y="384.5" width="32" height="32" fill="#94612C"/>
<rect x="256.5" y="384.5" width="32" height="32" stroke="#94612C"/>
<rect x="288.5" y="384.5" width="32" height="32" fill="#94612C"/>
<rect x="288.5" y="384.5" width="32" height="32" stroke="#94612C"/>
<rect x="320.5" y="384.5" width="32" height="32" fill="#603815"/>
<rect x="320.5" y="384.5" width="32" height="32" stroke="#603815"/>
<rect x="64.5" y="416.5" width="32" height="32" fill="#603815"/>
<rect x="64.5" y="416.5" width="32" height="32" stroke="#603815"/>
<rect x="128.5" y="416.5" width="32" height="32" fill="#603815"/>
<rect x="128.5" y="416.5" width="32" height="32" stroke="#603815"/>
<rect x="192.5" y="416.5" width="32" height="32" fill="#603815"/>
<rect x="192.5" y="416.5" width="32" height="32" stroke="#603815"/>
<rect x="256.5" y="416.5" width="32" height="32" fill="#603815"/>
<rect x="256.5" y="416.5" width="32" height="32" stroke="#603815"/>
<rect x="288.5" y="416.5" width="32" height="32" fill="#603815"/>
<rect x="288.5" y="416.5" width="32" height="32" stroke="#603815"/>
</svg>
