<svg width="513" height="385" viewBox="0 0 513 385" fill="none" xmlns="http://www.w3.org/2000/svg">
<rect x="160.5" y="0.5" width="32" height="32" fill="#FF3F8E"/>
<rect x="160.5" y="0.5" width="32" height="32" stroke="#FF3F8E"/>
<rect x="192.5" y="0.5" width="32" height="32" fill="#FF3F8E"/>
<rect x="192.5" y="0.5" width="32" height="32" stroke="#FF3F8E"/>
<rect x="256.5" y="0.5" width="32" height="32" fill="#F08DB6"/>
<rect x="256.5" y="0.5" width="32" height="32" stroke="#F08DB6"/>
<rect x="288.5" y="0.5" width="32" height="32" fill="#F08DB6"/>
<rect x="288.5" y="0.5" width="32" height="32" stroke="#F08DB6"/>
<rect x="320.5" y="0.5" width="32" height="32" fill="#F08DB6"/>
<rect x="320.5" y="0.5" width="32" height="32" stroke="#F08DB6"/>
<rect x="352.5" y="0.5" width="32" height="32" fill="#F08DB6"/>
<rect x="352.5" y="0.5" width="32" height="32" stroke="#F08DB6"/>
<rect x="416.5" y="0.5" width="32" height="32" fill="#FF3F8E"/>
<rect x="416.5" y="0.5" width="32" height="32" stroke="#FF3F8E"/>
<rect x="448.5" y="0.5" width="32" height="32" fill="#FF3F8E"/>
<rect x="448.5" y="0.5" width="32" height="32" stroke="#FF3F8E"/>
<rect x="160.5" y="32.5" width="32" height="32" fill="#FF3F8E"/>
<rect x="160.5" y="32.5" width="32" height="32" stroke="#FF3F8E"/>
<rect x="192.5" y="32.5" width="32" height="32" fill="#FF3F8E"/>
<rect x="192.5" y="32.5" width="32" height="32" stroke="#FF3F8E"/>
<rect x="224.5" y="32.5" width="32" height="32" fill="#F08DB6"/>
<rect x="224.5" y="32.5" width="32" height="32" stroke="#F08DB6"/>
<rect x="256.5" y="32.5" width="32" height="32" fill="#FFD8E8"/>
<rect x="256.5" y="32.5" width="32" height="32" stroke="#FFD8E8"/>
<rect x="288.5" y="32.5" width="32" height="32" fill="#FFD8E8"/>
<rect x="288.5" y="32.5" width="32" height="32" stroke="#FFD8E8"/>
<rect x="320.5" y="32.5" width="32" height="32" fill="#FFD8E8"/>
<rect x="320.5" y="32.5" width="32" height="32" stroke="#FFD8E8"/>
<rect x="352.5" y="32.5" width="32" height="32" fill="#FFD8E8"/>
<rect x="352.5" y="32.5" width="32" height="32" stroke="#FFD8E8"/>
<rect x="384.5" y="32.5" width="32" height="32" fill="#F08DB6"/>
<rect x="384.5" y="32.5" width="32" height="32" stroke="#F08DB6"/>
<rect x="416.5" y="32.5" width="32" height="32" fill="#FF3F8E"/>
<rect x="416.5" y="32.5" width="32" height="32" stroke="#FF3F8E"/>
<rect x="448.5" y="32.5" width="32" height="32" fill="#FF3F8E"/>
<rect x="448.5" y="32.5" width="32" height="32" stroke="#FF3F8E"/>
<rect x="192.5" y="64.5" width="32" height="32" fill="#F08DB6"/>
<rect x="192.5" y="64.5" width="32" height="32" stroke="#F08DB6"/>
<rect x="224.5" y="64.5" width="32" height="32" fill="#FFD8E8"/>
<rect x="224.5" y="64.5" width="32" height="32" stroke="#FFD8E8"/>
<rect x="256.5" y="64.5" width="32" height="32" fill="#714915"/>
<rect x="256.5" y="64.5" width="32" height="32" stroke="#714915"/>
<rect x="288.5" y="64.5" width="32" height="32" fill="#FFD8E8"/>
<rect x="288.5" y="64.5" width="32" height="32" stroke="#FFD8E8"/>
<rect x="320.5" y="64.5" width="32" height="32" fill="#FFD8E8"/>
<rect x="320.5" y="64.5" width="32" height="32" stroke="#FFD8E8"/>
<rect x="352.5" y="64.5" width="32" height="32" fill="#FFD8E8"/>
<rect x="352.5" y="64.5" width="32" height="32" stroke="#FFD8E8"/>
<rect x="384.5" y="64.5" width="32" height="32" fill="#714915"/>
<rect x="384.5" y="64.5" width="32" height="32" stroke="#714915"/>
<rect x="416.5" y="64.5" width="32" height="32" fill="#F08DB6"/>
<rect x="416.5" y="64.5" width="32" height="32" stroke="#F08DB6"/>
<rect x="192.5" y="96.5" width="32" height="32" fill="#F08DB6"/>
<rect x="192.5" y="96.5" width="32" height="32" stroke="#F08DB6"/>
<rect x="224.5" y="96.5" width="32" height="32" fill="#FFD8E8"/>
<rect x="224.5" y="96.5" width="32" height="32" stroke="#FFD8E8"/>
<rect x="256.5" y="96.5" width="32" height="32" fill="#FFD8E8"/>
<rect x="256.5" y="96.5" width="32" height="32" stroke="#FFD8E8"/>
<rect x="288.5" y="96.5" width="32" height="32" fill="#FFD8E8"/>
<rect x="288.5" y="96.5" width="32" height="32" stroke="#FFD8E8"/>
<rect x="320.5" y="96.5" width="32" height="32" fill="#714915"/>
<rect x="320.5" y="96.5" width="32" height="32" stroke="#714915"/>
<rect x="352.5" y="96.5" width="32" height="32" fill="#714915"/>
<rect x="352.5" y="96.5" width="32" height="32" stroke="#714915"/>
<rect x="384.5" y="96.5" width="32" height="32" fill="#FFD8E8"/>
<rect x="384.5" y="96.5" width="32" height="32" stroke="#FFD8E8"/>
<rect x="416.5" y="96.5" width="32" height="32" fill="#F08DB6"/>
<rect x="416.5" y="96.5" width="32" height="32" stroke="#F08DB6"/>
<rect x="160.5" y="128.5" width="32" height="32" fill="#F08DB6"/>
<rect x="160.5" y="128.5" width="32" height="32" stroke="#F08DB6"/>
<rect x="192.5" y="128.5" width="32" height="32" fill="#FFD8E8"/>
<rect x="192.5" y="128.5" width="32" height="32" stroke="#FFD8E8"/>
<rect x="224.5" y="128.5" width="32" height="32" fill="#FFD8E8"/>
<rect x="224.5" y="128.5" width="32" height="32" stroke="#FFD8E8"/>
<rect x="256.5" y="128.5" width="32" height="32" fill="#FFD8E8"/>
<rect x="256.5" y="128.5" width="32" height="32" stroke="#FFD8E8"/>
<rect x="288.5" y="128.5" width="32" height="32" fill="#FFABCD"/>
<rect x="288.5" y="128.5" width="32" height="32" stroke="#FFABCD"/>
<rect x="320.5" y="128.5" width="32" height="32" fill="#FFABCD"/>
<rect x="320.5" y="128.5" width="32" height="32" stroke="#FFABCD"/>
<rect x="352.5" y="128.5" width="32" height="32" fill="#FFABCD"/>
<rect x="352.5" y="128.5" width="32" height="32" stroke="#FFABCD"/>
<rect x="384.5" y="128.5" width="32" height="32" fill="#FFD8E8"/>
<rect x="384.5" y="128.5" width="32" height="32" stroke="#FFD8E8"/>
<rect x="416.5" y="128.5" width="32" height="32" fill="#F08DB6"/>
<rect x="416.5" y="128.5" width="32" height="32" stroke="#F08DB6"/>
<rect x="160.5" y="160.5" width="32" height="32" fill="#F08DB6"/>
<rect x="160.5" y="160.5" width="32" height="32" stroke="#F08DB6"/>
<rect x="192.5" y="160.5" width="32" height="32" fill="#FFD8E8"/>
<rect x="192.5" y="160.5" width="32" height="32" stroke="#FFD8E8"/>
<rect x="224.5" y="160.5" width="32" height="32" fill="#FFD8E8"/>
<rect x="224.5" y="160.5" width="32" height="32" stroke="#FFD8E8"/>
<rect x="256.5" y="160.5" width="32" height="32" fill="#FFD8E8"/>
<rect x="256.5" y="160.5" width="32" height="32" stroke="#FFD8E8"/>
<rect x="288.5" y="160.5" width="32" height="32" fill="#FFD8E8"/>
<rect x="288.5" y="160.5" width="32" height="32" stroke="#FFD8E8"/>
<rect x="320.5" y="160.5" width="32" height="32" fill="#FFD8E8"/>
<rect x="320.5" y="160.5" width="32" height="32" stroke="#FFD8E8"/>
<rect x="352.5" y="160.5" width="32" height="32" fill="#FFD8E8"/>
<rect x="352.5" y="160.5" width="32" height="32" stroke="#FFD8E8"/>
<rect x="384.5" y="160.5" width="32" height="32" fill="#FFD8E8"/>
<rect x="384.5" y="160.5" width="32" height="32" stroke="#FFD8E8"/>
<rect x="416.5" y="160.5" width="32" height="32" fill="#F08DB6"/>
<rect x="416.5" y="160.5" width="32" height="32" stroke="#F08DB6"/>
<rect x="128.5" y="192.5" width="32" height="32" fill="#F08DB6"/>
<rect x="128.5" y="192.5" width="32" height="32" stroke="#F08DB6"/>
<rect x="160.5" y="192.5" width="32" height="32" fill="#FFD8E8"/>
<rect x="160.5" y="192.5" width="32" height="32" stroke="#FFD8E8"/>
<rect x="192.5" y="192.5" width="32" height="32" fill="#FFD8E8"/>
<rect x="192.5" y="192.5" width="32" height="32" stroke="#FFD8E8"/>
<rect x="224.5" y="192.5" width="32" height="32" fill="#FFD8E8"/>
<rect x="224.5" y="192.5" width="32" height="32" stroke="#FFD8E8"/>
<rect x="256.5" y="192.5" width="32" height="32" fill="#FFD8E8"/>
<rect x="256.5" y="192.5" width="32" height="32" stroke="#FFD8E8"/>
<rect x="288.5" y="192.5" width="32" height="32" fill="#FFD8E8"/>
<rect x="288.5" y="192.5" width="32" height="32" stroke="#FFD8E8"/>
<rect x="320.5" y="192.5" width="32" height="32" fill="#F08DB6"/>
<rect x="320.5" y="192.5" width="32" height="32" stroke="#F08DB6"/>
<rect x="352.5" y="192.5" width="32" height="32" fill="#FFD8E8"/>
<rect x="352.5" y="192.5" width="32" height="32" stroke="#FFD8E8"/>
<rect x="384.5" y="192.5" width="32" height="32" fill="#FFD8E8"/>
<rect x="384.5" y="192.5" width="32" height="32" stroke="#FFD8E8"/>
<rect x="416.5" y="192.5" width="32" height="32" fill="#F08DB6"/>
<rect x="416.5" y="192.5" width="32" height="32" stroke="#F08DB6"/>
<rect x="448.5" y="192.5" width="32" height="32" fill="#FFD8E8"/>
<rect x="448.5" y="192.5" width="32" height="32" stroke="#FFD8E8"/>
<rect x="480.5" y="192.5" width="32" height="32" fill="#FF3F8E"/>
<rect x="480.5" y="192.5" width="32" height="32" stroke="#FF3F8E"/>
<rect x="128.5" y="224.5" width="32" height="32" fill="#F08DB6"/>
<rect x="128.5" y="224.5" width="32" height="32" stroke="#F08DB6"/>
<rect x="160.5" y="224.5" width="32" height="32" fill="#FFD8E8"/>
<rect x="160.5" y="224.5" width="32" height="32" stroke="#FFD8E8"/>
<rect x="192.5" y="224.5" width="32" height="32" fill="#FFD8E8"/>
<rect x="192.5" y="224.5" width="32" height="32" stroke="#FFD8E8"/>
<rect x="224.5" y="224.5" width="32" height="32" fill="#F08DB6"/>
<rect x="224.5" y="224.5" width="32" height="32" stroke="#F08DB6"/>
<rect x="256.5" y="224.5" width="32" height="32" fill="#F08DB6"/>
<rect x="256.5" y="224.5" width="32" height="32" stroke="#F08DB6"/>
<rect x="288.5" y="224.5" width="32" height="32" fill="#FF3F8E"/>
<rect x="288.5" y="224.5" width="32" height="32" stroke="#FF3F8E"/>
<rect x="320.5" y="224.5" width="32" height="32" fill="#FFD8E8"/>
<rect x="320.5" y="224.5" width="32" height="32" stroke="#FFD8E8"/>
<rect x="352.5" y="224.5" width="32" height="32" fill="#FF3F8E"/>
<rect x="352.5" y="224.5" width="32" height="32" stroke="#FF3F8E"/>
<rect x="384.5" y="224.5" width="32" height="32" fill="#FFD8E8"/>
<rect x="384.5" y="224.5" width="32" height="32" stroke="#FFD8E8"/>
<rect x="416.5" y="224.5" width="32" height="32" fill="#FFD8E8"/>
<rect x="416.5" y="224.5" width="32" height="32" stroke="#FFD8E8"/>
<rect x="448.5" y="224.5" width="32" height="32" fill="#FF3F8E"/>
<rect x="448.5" y="224.5" width="32" height="32" stroke="#FF3F8E"/>
<rect x="480.5" y="224.5" width="32" height="32" fill="#FF3F8E"/>
<rect x="480.5" y="224.5" width="32" height="32" stroke="#FF3F8E"/>
<rect x="128.5" y="256.5" width="32" height="32" fill="#F08DB6"/>
<rect x="128.5" y="256.5" width="32" height="32" stroke="#F08DB6"/>
<rect x="160.5" y="256.5" width="32" height="32" fill="#FFD8E8"/>
<rect x="160.5" y="256.5" width="32" height="32" stroke="#FFD8E8"/>
<rect x="192.5" y="256.5" width="32" height="32" fill="#FFD8E8"/>
<rect x="192.5" y="256.5" width="32" height="32" stroke="#FFD8E8"/>
<rect x="224.5" y="256.5" width="32" height="32" fill="#FFD8E8"/>
<rect x="224.5" y="256.5" width="32" height="32" stroke="#FFD8E8"/>
<rect x="256.5" y="256.5" width="32" height="32" fill="#FFD8E8"/>
<rect x="256.5" y="256.5" width="32" height="32" stroke="#FFD8E8"/>
<rect x="288.5" y="256.5" width="32" height="32" fill="#F08DB6"/>
<rect x="288.5" y="256.5" width="32" height="32" stroke="#F08DB6"/>
<rect x="320.5" y="256.5" width="32" height="32" fill="#FF3F8E"/>
<rect x="320.5" y="256.5" width="32" height="32" stroke="#FF3F8E"/>
<rect x="352.5" y="256.5" width="32" height="32" fill="#FF3F8E"/>
<rect x="352.5" y="256.5" width="32" height="32" stroke="#FF3F8E"/>
<rect x="384.5" y="256.5" width="32" height="32" fill="#FFD8E8"/>
<rect x="384.5" y="256.5" width="32" height="32" stroke="#FFD8E8"/>
<rect x="416.5" y="256.5" width="32" height="32" fill="#FFD8E8"/>
<rect x="416.5" y="256.5" width="32" height="32" stroke="#FFD8E8"/>
<rect x="448.5" y="256.5" width="32" height="32" fill="#F08DB6"/>
<rect x="448.5" y="256.5" width="32" height="32" stroke="#F08DB6"/>
<rect x="0.5" y="256.5" width="32" height="32" fill="#FF3F8E"/>
<rect x="0.5" y="256.5" width="32" height="32" stroke="#FF3F8E"/>
<rect x="32.5" y="256.5" width="32" height="32" fill="#FF3F8E"/>
<rect x="32.5" y="256.5" width="32" height="32" stroke="#FF3F8E"/>
<rect x="64.5" y="256.5" width="32" height="32" fill="#FF3F8E"/>
<rect x="64.5" y="256.5" width="32" height="32" stroke="#FF3F8E"/>
<rect x="96.5" y="256.5" width="32" height="32" fill="#FF3F8E"/>
<rect x="96.5" y="256.5" width="32" height="32" stroke="#FF3F8E"/>
<rect x="128.5" y="288.5" width="32" height="32" fill="#F08DB6"/>
<rect x="128.5" y="288.5" width="32" height="32" stroke="#F08DB6"/>
<rect x="160.5" y="288.5" width="32" height="32" fill="#FFD8E8"/>
<rect x="160.5" y="288.5" width="32" height="32" stroke="#FFD8E8"/>
<rect x="192.5" y="288.5" width="32" height="32" fill="#FFD8E8"/>
<rect x="192.5" y="288.5" width="32" height="32" stroke="#FFD8E8"/>
<rect x="224.5" y="288.5" width="32" height="32" fill="#FFD8E8"/>
<rect x="224.5" y="288.5" width="32" height="32" stroke="#FFD8E8"/>
<rect x="256.5" y="288.5" width="32" height="32" fill="#FFD8E8"/>
<rect x="256.5" y="288.5" width="32" height="32" stroke="#FFD8E8"/>
<rect x="288.5" y="288.5" width="32" height="32" fill="#F08DB6"/>
<rect x="288.5" y="288.5" width="32" height="32" stroke="#F08DB6"/>
<rect x="320.5" y="288.5" width="32" height="32" fill="#FFD8E8"/>
<rect x="320.5" y="288.5" width="32" height="32" stroke="#FFD8E8"/>
<rect x="352.5" y="288.5" width="32" height="32" fill="#FFD8E8"/>
<rect x="352.5" y="288.5" width="32" height="32" stroke="#FFD8E8"/>
<rect x="384.5" y="288.5" width="32" height="32" fill="#FFD8E8"/>
<rect x="384.5" y="288.5" width="32" height="32" stroke="#FFD8E8"/>
<rect x="416.5" y="288.5" width="32" height="32" fill="#FFD8E8"/>
<rect x="416.5" y="288.5" width="32" height="32" stroke="#FFD8E8"/>
<rect x="448.5" y="288.5" width="32" height="32" fill="#F08DB6"/>
<rect x="448.5" y="288.5" width="32" height="32" stroke="#F08DB6"/>
<rect x="0.5" y="288.5" width="32" height="32" fill="#FF3F8E"/>
<rect x="0.5" y="288.5" width="32" height="32" stroke="#FF3F8E"/>
<rect x="32.5" y="288.5" width="32" height="32" fill="#FF6AA8"/>
<rect x="32.5" y="288.5" width="32" height="32" stroke="#FF6AA8"/>
<rect x="64.5" y="288.5" width="32" height="32" fill="#FFABCD"/>
<rect x="64.5" y="288.5" width="32" height="32" stroke="#FFABCD"/>
<rect x="96.5" y="288.5" width="32" height="32" fill="#FF6AA8"/>
<rect x="96.5" y="288.5" width="32" height="32" stroke="#FF6AA8"/>
<rect x="128.5" y="320.5" width="32" height="32" fill="#F08DB6"/>
<rect x="128.5" y="320.5" width="32" height="32" stroke="#F08DB6"/>
<rect x="160.5" y="320.5" width="32" height="32" fill="#FFD8E8"/>
<rect x="160.5" y="320.5" width="32" height="32" stroke="#FFD8E8"/>
<rect x="192.5" y="320.5" width="32" height="32" fill="#FFD8E8"/>
<rect x="192.5" y="320.5" width="32" height="32" stroke="#FFD8E8"/>
<rect x="224.5" y="320.5" width="32" height="32" fill="#FFD8E8"/>
<rect x="224.5" y="320.5" width="32" height="32" stroke="#FFD8E8"/>
<rect x="256.5" y="320.5" width="32" height="32" fill="#FFD8E8"/>
<rect x="256.5" y="320.5" width="32" height="32" stroke="#FFD8E8"/>
<rect x="288.5" y="320.5" width="32" height="32" fill="#FF3F8E"/>
<rect x="288.5" y="320.5" width="32" height="32" stroke="#FF3F8E"/>
<rect x="320.5" y="320.5" width="32" height="32" fill="#FF3F8E"/>
<rect x="320.5" y="320.5" width="32" height="32" stroke="#FF3F8E"/>
<rect x="352.5" y="320.5" width="32" height="32" fill="#FF3F8E"/>
<rect x="352.5" y="320.5" width="32" height="32" stroke="#FF3F8E"/>
<rect x="384.5" y="320.5" width="32" height="32" fill="#F08DB6"/>
<rect x="384.5" y="320.5" width="32" height="32" stroke="#F08DB6"/>
<rect x="416.5" y="320.5" width="32" height="32" fill="#FF3F8E"/>
<rect x="416.5" y="320.5" width="32" height="32" stroke="#FF3F8E"/>
<rect x="448.5" y="320.5" width="32" height="32" fill="#FF3F8E"/>
<rect x="448.5" y="320.5" width="32" height="32" stroke="#FF3F8E"/>
<rect x="480.5" y="320.5" width="32" height="32" fill="#FF3F8E"/>
<rect x="480.5" y="320.5" width="32" height="32" stroke="#FF3F8E"/>
<rect x="32.5" y="320.5" width="32" height="32" fill="#FF3F8E"/>
<rect x="32.5" y="320.5" width="32" height="32" stroke="#FF3F8E"/>
<rect x="64.5" y="320.5" width="32" height="32" fill="#FF3F8E"/>
<rect x="64.5" y="320.5" width="32" height="32" stroke="#FF3F8E"/>
<rect x="96.5" y="320.5" width="32" height="32" fill="#FF3F8E"/>
<rect x="96.5" y="320.5" width="32" height="32" stroke="#FF3F8E"/>
<rect x="128.5" y="320.5" width="32" height="32" fill="#FF3F8E"/>
<rect x="128.5" y="320.5" width="32" height="32" stroke="#FF3F8E"/>
<rect x="160.5" y="352.5" width="32" height="32" fill="#F08DB6"/>
<rect x="160.5" y="352.5" width="32" height="32" stroke="#F08DB6"/>
<rect x="192.5" y="352.5" width="32" height="32" fill="#F08DB6"/>
<rect x="192.5" y="352.5" width="32" height="32" stroke="#F08DB6"/>
<rect x="224.5" y="352.5" width="32" height="32" fill="#F08DB6"/>
<rect x="224.5" y="352.5" width="32" height="32" stroke="#F08DB6"/>
<rect x="256.5" y="352.5" width="32" height="32" fill="#FF3F8E"/>
<rect x="256.5" y="352.5" width="32" height="32" stroke="#FF3F8E"/>
<rect x="288.5" y="352.5" width="32" height="32" fill="#FF3F8E"/>
<rect x="288.5" y="352.5" width="32" height="32" stroke="#FF3F8E"/>
<rect x="320.5" y="352.5" width="32" height="32" fill="#FF3F8E"/>
<rect x="320.5" y="352.5" width="32" height="32" stroke="#FF3F8E"/>
<rect x="352.5" y="352.5" width="32" height="32" fill="#FF3F8E"/>
<rect x="352.5" y="352.5" width="32" height="32" stroke="#FF3F8E"/>
<rect x="416.5" y="352.5" width="32" height="32" fill="#FF3F8E"/>
<rect x="416.5" y="352.5" width="32" height="32" stroke="#FF3F8E"/>
<rect x="448.5" y="352.5" width="32" height="32" fill="#FF3F8E"/>
<rect x="448.5" y="352.5" width="32" height="32" stroke="#FF3F8E"/>
<rect x="480.5" y="352.5" width="32" height="32" fill="#FF3F8E"/>
<rect x="480.5" y="352.5" width="32" height="32" stroke="#FF3F8E"/>
</svg>
