<svg width="513" height="417" viewBox="0 0 513 417" fill="none" xmlns="http://www.w3.org/2000/svg">
<rect x="0.5" y="0.5" width="32" height="32" fill="#8D5586"/>
<rect x="0.5" y="0.5" width="32" height="32" stroke="#8D5586"/>
<rect x="256.5" y="0.5" width="32" height="32" fill="#8D5586"/>
<rect x="256.5" y="0.5" width="32" height="32" stroke="#8D5586"/>
<rect width="32" height="32" transform="translate(0.5 32.5)" fill="#8D5586"/>
<rect x="32.5" y="32.5" width="32" height="32" fill="#8D5586"/>
<rect x="32.5" y="32.5" width="32" height="32" stroke="#8D5586"/>
<rect x="224.5" y="32.5" width="32" height="32" fill="#8D5586"/>
<rect x="224.5" y="32.5" width="32" height="32" stroke="#8D5586"/>
<rect x="256.5" y="32.5" width="32" height="32" fill="#8D5586"/>
<rect x="256.5" y="32.5" width="32" height="32" stroke="#8D5586"/>
<rect x="0.5" y="64.5" width="32" height="32" fill="#B75EAD"/>
<rect x="0.5" y="64.5" width="32" height="32" stroke="#B75EAD"/>
<rect x="32.5" y="64.5" width="32" height="32" fill="#8D5586"/>
<rect x="32.5" y="64.5" width="32" height="32" stroke="#8D5586"/>
<rect x="64.5" y="64.5" width="32" height="32" fill="#8D5586"/>
<rect x="64.5" y="64.5" width="32" height="32" stroke="#8D5586"/>
<rect x="96.5" y="64.5" width="32" height="32" fill="#E7283D"/>
<rect x="96.5" y="64.5" width="32" height="32" stroke="#E7283D"/>
<rect x="160.5" y="64.5" width="32" height="32" fill="#E7283D"/>
<rect x="160.5" y="64.5" width="32" height="32" stroke="#E7283D"/>
<rect x="192.5" y="64.5" width="32" height="32" fill="#8D5586"/>
<rect x="192.5" y="64.5" width="32" height="32" stroke="#8D5586"/>
<rect x="224.5" y="64.5" width="32" height="32" fill="#8D5586"/>
<rect x="224.5" y="64.5" width="32" height="32" stroke="#8D5586"/>
<rect x="256.5" y="64.5" width="32" height="32" fill="#B75EAD"/>
<rect x="256.5" y="64.5" width="32" height="32" stroke="#B75EAD"/>
<rect x="0.5" y="96.5" width="32" height="32" fill="#B75EAD"/>
<rect x="0.5" y="96.5" width="32" height="32" stroke="#B75EAD"/>
<rect x="32.5" y="96.5" width="32" height="32" fill="#B75EAD"/>
<rect x="32.5" y="96.5" width="32" height="32" stroke="#B75EAD"/>
<rect x="64.5" y="96.5" width="32" height="32" fill="#8D5586"/>
<rect x="64.5" y="96.5" width="32" height="32" stroke="#8D5586"/>
<rect x="96.5" y="96.5" width="32" height="32" fill="#E7283D"/>
<rect x="96.5" y="96.5" width="32" height="32" stroke="#E7283D"/>
<rect x="128.5" y="96.5" width="32" height="32" fill="#E7283D"/>
<rect x="128.5" y="96.5" width="32" height="32" stroke="#E7283D"/>
<rect x="160.5" y="96.5" width="32" height="32" fill="#E7283D"/>
<rect x="160.5" y="96.5" width="32" height="32" stroke="#E7283D"/>
<rect x="192.5" y="96.5" width="32" height="32" fill="#8D5586"/>
<rect x="192.5" y="96.5" width="32" height="32" stroke="#8D5586"/>
<rect x="224.5" y="96.5" width="32" height="32" fill="#B75EAD"/>
<rect x="224.5" y="96.5" width="32" height="32" stroke="#B75EAD"/>
<rect x="256.5" y="96.5" width="32" height="32" fill="#B75EAD"/>
<rect x="256.5" y="96.5" width="32" height="32" stroke="#B75EAD"/>
<rect x="32.5" y="128.5" width="32" height="32" fill="#B75EAD"/>
<rect x="32.5" y="128.5" width="32" height="32" stroke="#B75EAD"/>
<rect x="64.5" y="128.5" width="32" height="32" fill="#B75EAD"/>
<rect x="64.5" y="128.5" width="32" height="32" stroke="#B75EAD"/>
<rect x="96.5" y="128.5" width="32" height="32" fill="#B75EAD"/>
<rect x="96.5" y="128.5" width="32" height="32" stroke="#B75EAD"/>
<rect x="128.5" y="128.5" width="32" height="32" fill="#B75EAD"/>
<rect x="128.5" y="128.5" width="32" height="32" stroke="#B75EAD"/>
<rect x="160.5" y="128.5" width="32" height="32" fill="#B75EAD"/>
<rect x="160.5" y="128.5" width="32" height="32" stroke="#B75EAD"/>
<rect x="192.5" y="128.5" width="32" height="32" fill="#B75EAD"/>
<rect x="192.5" y="128.5" width="32" height="32" stroke="#B75EAD"/>
<rect x="224.5" y="128.5" width="32" height="32" fill="#B75EAD"/>
<rect x="224.5" y="128.5" width="32" height="32" stroke="#B75EAD"/>
<rect x="480.5" y="128.5" width="32" height="32" fill="#8D5586"/>
<rect x="480.5" y="128.5" width="32" height="32" stroke="#8D5586"/>
<rect x="32.5" y="160.5" width="32" height="32" fill="#B75EAD"/>
<rect x="32.5" y="160.5" width="32" height="32" stroke="#B75EAD"/>
<rect x="64.5" y="160.5" width="32" height="32" fill="black"/>
<rect x="64.5" y="160.5" width="32" height="32" stroke="black"/>
<rect x="96.5" y="160.5" width="32" height="32" fill="#B75EAD"/>
<rect x="96.5" y="160.5" width="32" height="32" stroke="#B75EAD"/>
<rect x="128.5" y="160.5" width="32" height="32" fill="#B75EAD"/>
<rect x="128.5" y="160.5" width="32" height="32" stroke="#B75EAD"/>
<rect x="160.5" y="160.5" width="32" height="32" fill="#B75EAD"/>
<rect x="160.5" y="160.5" width="32" height="32" stroke="#B75EAD"/>
<rect x="192.5" y="160.5" width="32" height="32" fill="black"/>
<rect x="192.5" y="160.5" width="32" height="32" stroke="black"/>
<rect x="224.5" y="160.5" width="32" height="32" fill="#B75EAD"/>
<rect x="224.5" y="160.5" width="32" height="32" stroke="#B75EAD"/>
<rect x="480.5" y="160.5" width="32" height="32" fill="#8D5586"/>
<rect x="480.5" y="160.5" width="32" height="32" stroke="#8D5586"/>
<rect x="32.5" y="192.5" width="32" height="32" fill="#B75EAD"/>
<rect x="32.5" y="192.5" width="32" height="32" stroke="#B75EAD"/>
<rect x="64.5" y="192.5" width="32" height="32" fill="#B75EAD"/>
<rect x="64.5" y="192.5" width="32" height="32" stroke="#B75EAD"/>
<rect x="96.5" y="192.5" width="32" height="32" fill="#D5ADD1"/>
<rect x="96.5" y="192.5" width="32" height="32" stroke="#D5ADD1"/>
<rect x="128.5" y="192.5" width="32" height="32" fill="black"/>
<rect x="128.5" y="192.5" width="32" height="32" stroke="black"/>
<rect x="160.5" y="192.5" width="32" height="32" fill="#D5ADD1"/>
<rect x="160.5" y="192.5" width="32" height="32" stroke="#D5ADD1"/>
<rect x="192.5" y="192.5" width="32" height="32" fill="#B75EAD"/>
<rect x="192.5" y="192.5" width="32" height="32" stroke="#B75EAD"/>
<rect x="224.5" y="192.5" width="32" height="32" fill="#B75EAD"/>
<rect x="224.5" y="192.5" width="32" height="32" stroke="#B75EAD"/>
<rect x="256.5" y="192.5" width="32" height="32" fill="#8D5586"/>
<rect x="256.5" y="192.5" width="32" height="32" stroke="#8D5586"/>
<rect x="288.5" y="192.5" width="32" height="32" fill="#8D5586"/>
<rect x="288.5" y="192.5" width="32" height="32" stroke="#8D5586"/>
<rect x="320.5" y="192.5" width="32" height="32" fill="#8D5586"/>
<rect x="320.5" y="192.5" width="32" height="32" stroke="#8D5586"/>
<rect x="352.5" y="192.5" width="32" height="32" fill="#8D5586"/>
<rect x="352.5" y="192.5" width="32" height="32" stroke="#8D5586"/>
<rect x="384.5" y="192.5" width="32" height="32" fill="#8D5586"/>
<rect x="384.5" y="192.5" width="32" height="32" stroke="#8D5586"/>
<rect x="416.5" y="192.5" width="32" height="32" fill="#8D5586"/>
<rect x="416.5" y="192.5" width="32" height="32" stroke="#8D5586"/>
<rect x="448.5" y="192.5" width="32" height="32" fill="#8D5586"/>
<rect x="448.5" y="192.5" width="32" height="32" stroke="#8D5586"/>
<rect x="480.5" y="192.5" width="32" height="32" fill="#8D5586"/>
<rect x="480.5" y="192.5" width="32" height="32" stroke="#8D5586"/>
<rect x="32.5" y="224.5" width="32" height="32" fill="#B75EAD"/>
<rect x="32.5" y="224.5" width="32" height="32" stroke="#B75EAD"/>
<rect x="64.5" y="224.5" width="32" height="32" fill="#D5ADD1"/>
<rect x="64.5" y="224.5" width="32" height="32" stroke="#D5ADD1"/>
<rect x="96.5" y="224.5" width="32" height="32" fill="#D5ADD1"/>
<rect x="96.5" y="224.5" width="32" height="32" stroke="#D5ADD1"/>
<rect x="128.5" y="224.5" width="32" height="32" fill="#E7283D"/>
<rect x="128.5" y="224.5" width="32" height="32" stroke="#E7283D"/>
<rect x="160.5" y="224.5" width="32" height="32" fill="#D5ADD1"/>
<rect x="160.5" y="224.5" width="32" height="32" stroke="#D5ADD1"/>
<rect x="192.5" y="224.5" width="32" height="32" fill="#D5ADD1"/>
<rect x="192.5" y="224.5" width="32" height="32" stroke="#D5ADD1"/>
<rect x="224.5" y="224.5" width="32" height="32" fill="#B75EAD"/>
<rect x="224.5" y="224.5" width="32" height="32" stroke="#B75EAD"/>
<rect x="256.5" y="224.5" width="32" height="32" fill="#8D5586"/>
<rect x="256.5" y="224.5" width="32" height="32" stroke="#8D5586"/>
<rect x="288.5" y="224.5" width="32" height="32" fill="#8D5586"/>
<rect x="288.5" y="224.5" width="32" height="32" stroke="#8D5586"/>
<rect x="320.5" y="224.5" width="32" height="32" fill="#8D5586"/>
<rect x="320.5" y="224.5" width="32" height="32" stroke="#8D5586"/>
<rect x="352.5" y="224.5" width="32" height="32" fill="#8D5586"/>
<rect x="352.5" y="224.5" width="32" height="32" stroke="#8D5586"/>
<rect x="384.5" y="224.5" width="32" height="32" fill="#8D5586"/>
<rect x="384.5" y="224.5" width="32" height="32" stroke="#8D5586"/>
<rect x="416.5" y="224.5" width="32" height="32" fill="#8D5586"/>
<rect x="416.5" y="224.5" width="32" height="32" stroke="#8D5586"/>
<rect x="448.5" y="224.5" width="32" height="32" fill="#8D5586"/>
<rect x="448.5" y="224.5" width="32" height="32" stroke="#8D5586"/>
<rect x="480.5" y="224.5" width="32" height="32" fill="#8D5586"/>
<rect x="480.5" y="224.5" width="32" height="32" stroke="#8D5586"/>
<rect x="64.5" y="256.5" width="32" height="32" fill="#D5ADD1"/>
<rect x="64.5" y="256.5" width="32" height="32" stroke="#D5ADD1"/>
<rect x="96.5" y="256.5" width="32" height="32" fill="#D5ADD1"/>
<rect x="96.5" y="256.5" width="32" height="32" stroke="#D5ADD1"/>
<rect x="128.5" y="256.5" width="32" height="32" fill="#D5ADD1"/>
<rect x="128.5" y="256.5" width="32" height="32" stroke="#D5ADD1"/>
<rect x="160.5" y="256.5" width="32" height="32" fill="#D5ADD1"/>
<rect x="160.5" y="256.5" width="32" height="32" stroke="#D5ADD1"/>
<rect x="192.5" y="256.5" width="32" height="32" fill="#D5ADD1"/>
<rect x="192.5" y="256.5" width="32" height="32" stroke="#D5ADD1"/>
<rect x="224.5" y="256.5" width="32" height="32" fill="#8D5586"/>
<rect x="224.5" y="256.5" width="32" height="32" stroke="#8D5586"/>
<rect x="256.5" y="256.5" width="32" height="32" fill="#8D5586"/>
<rect x="256.5" y="256.5" width="32" height="32" stroke="#8D5586"/>
<rect x="288.5" y="256.5" width="32" height="32" fill="#B75EAD"/>
<rect x="288.5" y="256.5" width="32" height="32" stroke="#B75EAD"/>
<rect x="320.5" y="256.5" width="32" height="32" fill="#8D5586"/>
<rect x="320.5" y="256.5" width="32" height="32" stroke="#8D5586"/>
<rect x="352.5" y="256.5" width="32" height="32" fill="#B75EAD"/>
<rect x="352.5" y="256.5" width="32" height="32" stroke="#B75EAD"/>
<rect x="384.5" y="256.5" width="32" height="32" fill="#8D5586"/>
<rect x="384.5" y="256.5" width="32" height="32" stroke="#8D5586"/>
<rect x="416.5" y="256.5" width="32" height="32" fill="#B75EAD"/>
<rect x="416.5" y="256.5" width="32" height="32" stroke="#B75EAD"/>
<rect x="448.5" y="256.5" width="32" height="32" fill="#8D5586"/>
<rect x="448.5" y="256.5" width="32" height="32" stroke="#8D5586"/>
<rect x="480.5" y="256.5" width="32" height="32" fill="#B75EAD"/>
<rect x="480.5" y="256.5" width="32" height="32" stroke="#B75EAD"/>
<rect x="64.5" y="288.5" width="32" height="32" fill="#D5ADD1"/>
<rect x="64.5" y="288.5" width="32" height="32" stroke="#D5ADD1"/>
<rect x="96.5" y="288.5" width="32" height="32" fill="#B75EAD"/>
<rect x="96.5" y="288.5" width="32" height="32" stroke="#B75EAD"/>
<rect x="128.5" y="288.5" width="32" height="32" fill="#D5ADD1"/>
<rect x="128.5" y="288.5" width="32" height="32" stroke="#D5ADD1"/>
<rect x="160.5" y="288.5" width="32" height="32" fill="#B75EAD"/>
<rect x="160.5" y="288.5" width="32" height="32" stroke="#B75EAD"/>
<rect x="192.5" y="288.5" width="32" height="32" fill="#D5ADD1"/>
<rect x="192.5" y="288.5" width="32" height="32" stroke="#D5ADD1"/>
<rect x="224.5" y="288.5" width="32" height="32" fill="#8D5586"/>
<rect x="224.5" y="288.5" width="32" height="32" stroke="#8D5586"/>
<rect x="256.5" y="288.5" width="32" height="32" fill="#8D5586"/>
<rect x="256.5" y="288.5" width="32" height="32" stroke="#8D5586"/>
<rect x="288.5" y="288.5" width="32" height="32" fill="#B75EAD"/>
<rect x="288.5" y="288.5" width="32" height="32" stroke="#B75EAD"/>
<rect x="320.5" y="288.5" width="32" height="32" fill="#8D5586"/>
<rect x="320.5" y="288.5" width="32" height="32" stroke="#8D5586"/>
<rect x="352.5" y="288.5" width="32" height="32" fill="#B75EAD"/>
<rect x="352.5" y="288.5" width="32" height="32" stroke="#B75EAD"/>
<rect x="384.5" y="288.5" width="32" height="32" fill="#8D5586"/>
<rect x="384.5" y="288.5" width="32" height="32" stroke="#8D5586"/>
<rect x="416.5" y="288.5" width="32" height="32" fill="#B75EAD"/>
<rect x="416.5" y="288.5" width="32" height="32" stroke="#B75EAD"/>
<rect x="448.5" y="288.5" width="32" height="32" fill="#8D5586"/>
<rect x="448.5" y="288.5" width="32" height="32" stroke="#8D5586"/>
<rect x="480.5" y="288.5" width="32" height="32" fill="#B75EAD"/>
<rect x="480.5" y="288.5" width="32" height="32" stroke="#B75EAD"/>
<rect x="64.5" y="320.5" width="32" height="32" fill="#D5ADD1"/>
<rect x="64.5" y="320.5" width="32" height="32" stroke="#D5ADD1"/>
<rect x="96.5" y="320.5" width="32" height="32" fill="#B75EAD"/>
<rect x="96.5" y="320.5" width="32" height="32" stroke="#B75EAD"/>
<rect x="128.5" y="320.5" width="32" height="32" fill="#D5ADD1"/>
<rect x="128.5" y="320.5" width="32" height="32" stroke="#D5ADD1"/>
<rect x="160.5" y="320.5" width="32" height="32" fill="#B75EAD"/>
<rect x="160.5" y="320.5" width="32" height="32" stroke="#B75EAD"/>
<rect x="192.5" y="320.5" width="32" height="32" fill="#D5ADD1"/>
<rect x="192.5" y="320.5" width="32" height="32" stroke="#D5ADD1"/>
<rect x="224.5" y="320.5" width="32" height="32" fill="#8D5586"/>
<rect x="224.5" y="320.5" width="32" height="32" stroke="#8D5586"/>
<rect x="256.5" y="320.5" width="32" height="32" fill="#8D5586"/>
<rect x="256.5" y="320.5" width="32" height="32" stroke="#8D5586"/>
<rect x="288.5" y="320.5" width="32" height="32" fill="#B75EAD"/>
<rect x="288.5" y="320.5" width="32" height="32" stroke="#B75EAD"/>
<rect x="320.5" y="320.5" width="32" height="32" fill="#8D5586"/>
<rect x="320.5" y="320.5" width="32" height="32" stroke="#8D5586"/>
<rect x="352.5" y="320.5" width="32" height="32" fill="#B75EAD"/>
<rect x="352.5" y="320.5" width="32" height="32" stroke="#B75EAD"/>
<rect x="384.5" y="320.5" width="32" height="32" fill="#8D5586"/>
<rect x="384.5" y="320.5" width="32" height="32" stroke="#8D5586"/>
<rect x="416.5" y="320.5" width="32" height="32" fill="#B75EAD"/>
<rect x="416.5" y="320.5" width="32" height="32" stroke="#B75EAD"/>
<rect x="448.5" y="320.5" width="32" height="32" fill="#8D5586"/>
<rect x="448.5" y="320.5" width="32" height="32" stroke="#8D5586"/>
<rect x="480.5" y="320.5" width="32" height="32" fill="#B75EAD"/>
<rect x="480.5" y="320.5" width="32" height="32" stroke="#B75EAD"/>
<rect x="64.5" y="352.5" width="32" height="32" fill="#D5ADD1"/>
<rect x="64.5" y="352.5" width="32" height="32" stroke="#D5ADD1"/>
<rect x="128.5" y="352.5" width="32" height="32" fill="#D5ADD1"/>
<rect x="128.5" y="352.5" width="32" height="32" stroke="#D5ADD1"/>
<rect x="192.5" y="352.5" width="32" height="32" fill="#D5ADD1"/>
<rect x="192.5" y="352.5" width="32" height="32" stroke="#D5ADD1"/>
<rect x="224.5" y="352.5" width="32" height="32" fill="#8D5586"/>
<rect x="224.5" y="352.5" width="32" height="32" stroke="#8D5586"/>
<rect x="256.5" y="352.5" width="32" height="32" fill="#8D5586"/>
<rect x="256.5" y="352.5" width="32" height="32" stroke="#8D5586"/>
<rect x="288.5" y="352.5" width="32" height="32" fill="#B75EAD"/>
<rect x="288.5" y="352.5" width="32" height="32" stroke="#B75EAD"/>
<rect x="320.5" y="352.5" width="32" height="32" fill="#8D5586"/>
<rect x="320.5" y="352.5" width="32" height="32" stroke="#8D5586"/>
<rect x="352.5" y="352.5" width="32" height="32" fill="#B75EAD"/>
<rect x="352.5" y="352.5" width="32" height="32" stroke="#B75EAD"/>
<rect x="384.5" y="352.5" width="32" height="32" fill="#8D5586"/>
<rect x="384.5" y="352.5" width="32" height="32" stroke="#8D5586"/>
<rect x="416.5" y="352.5" width="32" height="32" fill="#B75EAD"/>
<rect x="416.5" y="352.5" width="32" height="32" stroke="#B75EAD"/>
<rect x="448.5" y="352.5" width="32" height="32" fill="#8D5586"/>
<rect x="448.5" y="352.5" width="32" height="32" stroke="#8D5586"/>
<rect x="480.5" y="352.5" width="32" height="32" fill="#8D5586"/>
<rect x="480.5" y="352.5" width="32" height="32" stroke="#8D5586"/>
<rect x="192.5" y="384.5" width="32" height="32" fill="#8D5586"/>
<rect x="192.5" y="384.5" width="32" height="32" stroke="#8D5586"/>
<rect x="224.5" y="384.5" width="32" height="32" fill="#8D5586"/>
<rect x="224.5" y="384.5" width="32" height="32" stroke="#8D5586"/>
<rect x="288.5" y="384.5" width="32" height="32" fill="#B75EAD"/>
<rect x="288.5" y="384.5" width="32" height="32" stroke="#B75EAD"/>
<rect x="352.5" y="384.5" width="32" height="32" fill="#B75EAD"/>
<rect x="352.5" y="384.5" width="32" height="32" stroke="#B75EAD"/>
<rect x="416.5" y="384.5" width="32" height="32" fill="#8D5586"/>
<rect x="416.5" y="384.5" width="32" height="32" stroke="#8D5586"/>
<rect x="448.5" y="384.5" width="32" height="32" fill="#8D5586"/>
<rect x="448.5" y="384.5" width="32" height="32" stroke="#8D5586"/>
</svg>
