<svg width="512" height="416" viewBox="0 0 512 416" fill="none" xmlns="http://www.w3.org/2000/svg">
<rect width="32" height="32" fill="#7B3C21"/>
<rect width="32" height="32" transform="translate(256)" fill="#7B3C21"/>
<rect width="32" height="32" transform="translate(0 32)" fill="#7B3C21"/>
<rect width="32" height="32" transform="translate(32 32)" fill="#7B3C21"/>
<rect width="32" height="32" transform="translate(224 32)" fill="#7B3C21"/>
<rect width="32" height="32" transform="translate(256 32)" fill="#7B3C21"/>
<rect width="32" height="32" transform="translate(0 64)" fill="#AA5938"/>
<rect width="32" height="32" transform="translate(32 64)" fill="#7B3C21"/>
<rect width="32" height="32" transform="translate(64 64)" fill="#7B3C21"/>
<rect width="32" height="32" transform="translate(96 64)" fill="#FB2940"/>
<rect width="32" height="32" transform="translate(160 64)" fill="#FB2940"/>
<rect width="32" height="32" transform="translate(192 64)" fill="#7B3C21"/>
<rect width="32" height="32" transform="translate(224 64)" fill="#7B3C21"/>
<rect width="32" height="32" transform="translate(256 64)" fill="#AA5938"/>
<rect width="32" height="32" transform="translate(0 96)" fill="#AA5938"/>
<rect width="32" height="32" transform="translate(32 96)" fill="#AA5938"/>
<rect width="32" height="32" transform="translate(64 96)" fill="#7B3C21"/>
<rect width="32" height="32" transform="translate(96 96)" fill="#FB2940"/>
<rect width="32" height="32" transform="translate(128 96)" fill="#FB2940"/>
<rect width="32" height="32" transform="translate(160 96)" fill="#FB2940"/>
<rect width="32" height="32" transform="translate(192 96)" fill="#7B3C21"/>
<rect width="32" height="32" transform="translate(224 96)" fill="#AA5938"/>
<rect width="32" height="32" transform="translate(256 96)" fill="#AA5938"/>
<rect width="32" height="32" transform="translate(32 128)" fill="#AA5938"/>
<rect width="32" height="32" transform="translate(64 128)" fill="#AA5938"/>
<rect width="32" height="32" transform="translate(96 128)" fill="#AA5938"/>
<rect width="32" height="32" transform="translate(128 128)" fill="#AA5938"/>
<rect width="32" height="32" transform="translate(160 128)" fill="#AA5938"/>
<rect width="32" height="32" transform="translate(192 128)" fill="#AA5938"/>
<rect width="32" height="32" transform="translate(224 128)" fill="#AA5938"/>
<rect width="32" height="32" transform="translate(480 128)" fill="#7B3C21"/>
<rect width="32" height="32" transform="translate(32 160)" fill="#AA5938"/>
<rect x="64" y="160" width="32" height="32" fill="black"/>
<rect x="64" y="160" width="32" height="32" stroke="black"/>
<rect width="32" height="32" transform="translate(96 160)" fill="#AA5938"/>
<rect width="32" height="32" transform="translate(128 160)" fill="#AA5938"/>
<rect width="32" height="32" transform="translate(160 160)" fill="#AA5938"/>
<rect width="32" height="32" transform="translate(192 160)" fill="black"/>
<rect width="32" height="32" transform="translate(224 160)" fill="#AA5938"/>
<rect width="32" height="32" transform="translate(480 160)" fill="#7B3C21"/>
<rect width="32" height="32" transform="translate(32 192)" fill="#AA5938"/>
<rect width="32" height="32" transform="translate(64 192)" fill="#AA5938"/>
<rect width="32" height="32" transform="translate(96 192)" fill="#FDD19F"/>
<rect width="32" height="32" transform="translate(128 192)" fill="black"/>
<rect width="32" height="32" transform="translate(160 192)" fill="#FDD19F"/>
<rect width="32" height="32" transform="translate(192 192)" fill="#AA5938"/>
<rect width="32" height="32" transform="translate(224 192)" fill="#AA5938"/>
<rect width="32" height="32" transform="translate(256 192)" fill="#7B3C21"/>
<rect width="32" height="32" transform="translate(288 192)" fill="#7B3C21"/>
<rect width="32" height="32" transform="translate(320 192)" fill="#7B3C21"/>
<rect width="32" height="32" transform="translate(352 192)" fill="#7B3C21"/>
<rect width="32" height="32" transform="translate(384 192)" fill="#7B3C21"/>
<rect width="32" height="32" transform="translate(416 192)" fill="#7B3C21"/>
<rect width="32" height="32" transform="translate(448 192)" fill="#7B3C21"/>
<rect width="32" height="32" transform="translate(480 192)" fill="#7B3C21"/>
<rect width="32" height="32" transform="translate(32 224)" fill="#AA5938"/>
<rect width="32" height="32" transform="translate(64 224)" fill="#FDD19F"/>
<rect width="32" height="32" transform="translate(96 224)" fill="#FDD19F"/>
<rect width="32" height="32" transform="translate(128 224)" fill="#FB2940"/>
<rect width="32" height="32" transform="translate(160 224)" fill="#FDD19F"/>
<rect width="32" height="32" transform="translate(192 224)" fill="#FDD19F"/>
<rect width="32" height="32" transform="translate(224 224)" fill="#AA5938"/>
<rect width="32" height="32" transform="translate(256 224)" fill="#7B3C21"/>
<rect width="32" height="32" transform="translate(288 224)" fill="#7B3C21"/>
<rect width="32" height="32" transform="translate(320 224)" fill="#7B3C21"/>
<rect width="32" height="32" transform="translate(352 224)" fill="#7B3C21"/>
<rect width="32" height="32" transform="translate(384 224)" fill="#7B3C21"/>
<rect width="32" height="32" transform="translate(416 224)" fill="#7B3C21"/>
<rect width="32" height="32" transform="translate(448 224)" fill="#7B3C21"/>
<rect width="32" height="32" transform="translate(480 224)" fill="#7B3C21"/>
<rect width="32" height="32" transform="translate(64 256)" fill="#FDD19F"/>
<rect width="32" height="32" transform="translate(96 256)" fill="#FDD19F"/>
<rect width="32" height="32" transform="translate(128 256)" fill="#FDD19F"/>
<rect width="32" height="32" transform="translate(160 256)" fill="#FDD19F"/>
<rect width="32" height="32" transform="translate(192 256)" fill="#FDD19F"/>
<rect width="32" height="32" transform="translate(224 256)" fill="#7B3C21"/>
<rect width="32" height="32" transform="translate(256 256)" fill="#7B3C21"/>
<rect width="32" height="32" transform="translate(288 256)" fill="#AA5938"/>
<rect width="32" height="32" transform="translate(320 256)" fill="#7B3C21"/>
<rect width="32" height="32" transform="translate(352 256)" fill="#AA5938"/>
<rect width="32" height="32" transform="translate(384 256)" fill="#7B3C21"/>
<rect width="32" height="32" transform="translate(416 256)" fill="#AA5938"/>
<rect width="32" height="32" transform="translate(448 256)" fill="#7B3C21"/>
<rect width="32" height="32" transform="translate(480 256)" fill="#AA5938"/>
<rect width="32" height="32" transform="translate(64 288)" fill="#FDD19F"/>
<rect width="32" height="32" transform="translate(96 288)" fill="#AA5938"/>
<rect width="32" height="32" transform="translate(128 288)" fill="#FDD19F"/>
<rect width="32" height="32" transform="translate(160 288)" fill="#AA5938"/>
<rect width="32" height="32" transform="translate(192 288)" fill="#FDD19F"/>
<rect width="32" height="32" transform="translate(224 288)" fill="#7B3C21"/>
<rect width="32" height="32" transform="translate(256 288)" fill="#7B3C21"/>
<rect width="32" height="32" transform="translate(288 288)" fill="#AA5938"/>
<rect width="32" height="32" transform="translate(320 288)" fill="#7B3C21"/>
<rect width="32" height="32" transform="translate(352 288)" fill="#AA5938"/>
<rect width="32" height="32" transform="translate(384 288)" fill="#7B3C21"/>
<rect width="32" height="32" transform="translate(416 288)" fill="#AA5938"/>
<rect width="32" height="32" transform="translate(448 288)" fill="#7B3C21"/>
<rect width="32" height="32" transform="translate(480 288)" fill="#AA5938"/>
<rect width="32" height="32" transform="translate(64 320)" fill="#FDD19F"/>
<rect width="32" height="32" transform="translate(96 320)" fill="#AA5938"/>
<rect width="32" height="32" transform="translate(128 320)" fill="#FDD19F"/>
<rect width="32" height="32" transform="translate(160 320)" fill="#AA5938"/>
<rect width="32" height="32" transform="translate(192 320)" fill="#FDD19F"/>
<rect width="32" height="32" transform="translate(224 320)" fill="#7B3C21"/>
<rect width="32" height="32" transform="translate(256 320)" fill="#7B3C21"/>
<rect width="32" height="32" transform="translate(288 320)" fill="#AA5938"/>
<rect width="32" height="32" transform="translate(320 320)" fill="#7B3C21"/>
<rect width="32" height="32" transform="translate(352 320)" fill="#AA5938"/>
<rect width="32" height="32" transform="translate(384 320)" fill="#7B3C21"/>
<rect width="32" height="32" transform="translate(416 320)" fill="#AA5938"/>
<rect width="32" height="32" transform="translate(448 320)" fill="#7B3C21"/>
<rect width="32" height="32" transform="translate(480 320)" fill="#AA5938"/>
<rect width="32" height="32" transform="translate(64 352)" fill="#FDD19F"/>
<rect width="32" height="32" transform="translate(128 352)" fill="#FDD19F"/>
<rect width="32" height="32" transform="translate(192 352)" fill="#FDD19F"/>
<rect width="32" height="32" transform="translate(224 352)" fill="#7B3C21"/>
<rect width="32" height="32" transform="translate(256 352)" fill="#7B3C21"/>
<rect width="32" height="32" transform="translate(288 352)" fill="#AA5938"/>
<rect width="32" height="32" transform="translate(320 352)" fill="#7B3C21"/>
<rect width="32" height="32" transform="translate(352 352)" fill="#AA5938"/>
<rect width="32" height="32" transform="translate(384 352)" fill="#7B3C21"/>
<rect width="32" height="32" transform="translate(416 352)" fill="#AA5938"/>
<rect width="32" height="32" transform="translate(448 352)" fill="#7B3C21"/>
<rect width="32" height="32" transform="translate(480 352)" fill="#7B3C21"/>
<rect width="32" height="32" transform="translate(192 384)" fill="#7B3C21"/>
<rect width="32" height="32" transform="translate(224 384)" fill="#7B3C21"/>
<rect width="32" height="32" transform="translate(288 384)" fill="#AA5938"/>
<rect width="32" height="32" transform="translate(352 384)" fill="#AA5938"/>
<rect width="32" height="32" transform="translate(416 384)" fill="#7B3C21"/>
<rect width="32" height="32" transform="translate(448 384)" fill="#7B3C21"/>
</svg>
